<svg width="24" height="25" viewBox="0 0 24 25" fill="none" xmlns="http://www.w3.org/2000/svg">
<path d="M7.49957 5.93301L4.99957 7.33301L6.39957 4.83301L4.99957 2.33301L7.49957 3.73301L9.99957 2.33301L8.59957 4.83301L9.99957 7.33301L7.49957 5.93301ZM19.4996 15.733L21.9996 14.333L20.5996 16.833L21.9996 19.333L19.4996 17.933L16.9996 19.333L18.3996 16.833L16.9996 14.333L19.4996 15.733ZM21.9996 2.33301L20.5996 4.83301L21.9996 7.33301L19.4996 5.93301L16.9996 7.33301L18.3996 4.83301L16.9996 2.33301L19.4996 3.73301L21.9996 2.33301ZM13.3396 13.113L15.7796 10.673L13.6596 8.55301L11.2196 10.993L13.3396 13.113ZM14.3696 7.62301L16.7096 9.96301C17.0996 10.333 17.0996 10.983 16.7096 11.373L5.03957 23.043C4.64957 23.433 3.99957 23.433 3.62957 23.043L1.28957 20.703C0.89957 20.333 0.89957 19.683 1.28957 19.293L12.9596 7.62301C13.3496 7.23301 13.9996 7.23301 14.3696 7.62301Z" fill="#EF965A"/>
</svg>
