<svg width="24" height="25" viewBox="0 0 24 25" fill="none" xmlns="http://www.w3.org/2000/svg">
<path d="M7 15.3331H10C10.08 14.6531 10.23 13.9731 10.5 13.3331H7V15.3331ZM11.9 11.2331C13.17 9.97306 14.84 9.33306 16.5 9.33306H7V11.3331H11.82C11.85 11.3031 11.87 11.2731 11.9 11.2331ZM11.9 20.4331C12.26 20.7831 12.65 21.0731 13.06 21.3331H5C3.9 21.3331 3 20.4431 3 19.3331V5.33306C3 4.23306 3.9 3.33306 5 3.33306H9.18C9.5 2.49306 10.14 1.83306 11 1.53306C12.53 0.973062 14.25 1.77306 14.82 3.33306H19C20.11 3.33306 21 4.23306 21 5.33306V11.1531C20.4 10.5731 19.72 10.1331 19 9.83306V5.33306H17V7.33306H7V5.33306H5V19.3331H11.03C11.27 19.7231 11.57 20.0931 11.9 20.4331ZM11 4.33306C11 4.88306 11.45 5.33306 12 5.33306C12.55 5.33306 13 4.88306 13 4.33306C13 3.78306 12.55 3.33306 12 3.33306C11.45 3.33306 11 3.78306 11 4.33306ZM23.39 21.3331L22 22.7231L18.88 19.6531C18.19 20.0831 17.37 20.3331 16.5 20.3331C14 20.3331 12 18.3331 12 15.8331C12 13.3331 14 11.3331 16.5 11.3331C19 11.3331 21 13.3331 21 15.8331C21 16.7131 20.75 17.5431 20.31 18.2331L23.39 21.3331ZM19 15.8331C19 14.4531 17.88 13.3331 16.5 13.3331C15.12 13.3331 14 14.4531 14 15.8331C14 17.2131 15.12 18.3331 16.5 18.3331C17.88 18.3331 19 17.2131 19 15.8331Z" fill="#53A0BE"/>
</svg>
