<svg width="60" height="50" viewBox="0 0 60 50" fill="none" xmlns="http://www.w3.org/2000/svg">
<path d="M11.8838 31.8726L9.29492 39H8.23682L11.2178 31.1797H11.8999L11.8838 31.8726ZM14.0537 39L11.4595 31.8726L11.4434 31.1797H12.1255L15.1172 39H14.0537ZM13.9194 36.105V36.9536H9.52588V36.105H13.9194Z" />
<path d="M17.0078 34.4292V39H16.0142V33.1885H16.9541L17.0078 34.4292ZM16.7715 35.874L16.3579 35.8579C16.3615 35.4604 16.4206 35.0934 16.5352 34.7568C16.6497 34.4167 16.8109 34.1213 17.0186 33.8706C17.2262 33.62 17.4733 33.4266 17.7598 33.2905C18.0498 33.1509 18.3703 33.0811 18.7212 33.0811C19.0076 33.0811 19.2655 33.1204 19.4946 33.1992C19.7238 33.2744 19.9189 33.3962 20.0801 33.5645C20.2448 33.7327 20.3701 33.9512 20.4561 34.2197C20.542 34.4847 20.585 34.8088 20.585 35.1919V39H19.5859V35.1812C19.5859 34.8768 19.5412 34.6333 19.4517 34.4507C19.3621 34.2645 19.2314 34.1302 19.0596 34.0479C18.8877 33.9619 18.6764 33.9189 18.4258 33.9189C18.1787 33.9189 17.9531 33.9709 17.749 34.0747C17.5485 34.1785 17.3748 34.3218 17.228 34.5044C17.0848 34.687 16.972 34.8965 16.8896 35.1328C16.8109 35.3656 16.7715 35.6126 16.7715 35.874Z" />
<path d="M25.521 38.0063V35.0146C25.521 34.7855 25.4744 34.5868 25.3813 34.4185C25.2918 34.2466 25.1558 34.1141 24.9731 34.021C24.7905 33.9279 24.5649 33.8813 24.2964 33.8813C24.0457 33.8813 23.8255 33.9243 23.6357 34.0103C23.4495 34.0962 23.3027 34.209 23.1953 34.3486C23.0915 34.4883 23.0396 34.6387 23.0396 34.7998H22.0459C22.0459 34.5921 22.0996 34.3862 22.207 34.1821C22.3145 33.978 22.4684 33.7936 22.6689 33.6289C22.873 33.4606 23.1165 33.3281 23.3994 33.2314C23.6859 33.1312 24.0046 33.0811 24.3555 33.0811C24.778 33.0811 25.1504 33.1527 25.4727 33.2959C25.7985 33.4391 26.0527 33.6558 26.2354 33.9458C26.4215 34.2323 26.5146 34.5921 26.5146 35.0254V37.7324C26.5146 37.9258 26.5308 38.1317 26.563 38.3501C26.5988 38.5685 26.6507 38.7565 26.7188 38.9141V39H25.6821C25.632 38.8854 25.5926 38.7332 25.564 38.5435C25.5353 38.3501 25.521 38.1711 25.521 38.0063ZM25.6929 35.4766L25.7036 36.1748H24.6992C24.4163 36.1748 24.1639 36.1981 23.9419 36.2446C23.7199 36.2876 23.5337 36.3538 23.3833 36.4434C23.2329 36.5329 23.1183 36.6457 23.0396 36.7817C22.9608 36.9142 22.9214 37.07 22.9214 37.249C22.9214 37.4316 22.9626 37.5981 23.0449 37.7485C23.1273 37.8989 23.2508 38.0189 23.4155 38.1084C23.5838 38.1943 23.7897 38.2373 24.0332 38.2373C24.3376 38.2373 24.6061 38.1729 24.8389 38.0439C25.0716 37.915 25.256 37.7575 25.3921 37.5713C25.5317 37.3851 25.6069 37.2043 25.6177 37.0288L26.042 37.5068C26.0169 37.6572 25.9489 37.8237 25.8379 38.0063C25.7269 38.189 25.5783 38.3644 25.3921 38.5327C25.2095 38.6974 24.991 38.8353 24.7368 38.9463C24.4862 39.0537 24.2033 39.1074 23.8882 39.1074C23.4943 39.1074 23.1488 39.0304 22.8516 38.8765C22.5579 38.7225 22.3288 38.5166 22.1641 38.2588C22.0029 37.9974 21.9224 37.7056 21.9224 37.3833C21.9224 37.0718 21.9832 36.7979 22.105 36.5615C22.2267 36.3216 22.4022 36.1229 22.6313 35.9653C22.8605 35.8042 23.1362 35.6825 23.4585 35.6001C23.7808 35.5177 24.1406 35.4766 24.5381 35.4766H25.6929Z" />
<path d="M29.1572 30.75V39H28.1582V30.75H29.1572Z" />
<path d="M32.3853 38.3984L34.002 33.1885H35.0654L32.7344 39.897C32.6807 40.0402 32.609 40.1942 32.5195 40.3589C32.4336 40.5272 32.3226 40.6865 32.1865 40.8369C32.0505 40.9873 31.8857 41.109 31.6924 41.2021C31.5026 41.2988 31.2752 41.3472 31.0103 41.3472C30.9315 41.3472 30.8312 41.3364 30.7095 41.3149C30.5877 41.2935 30.5018 41.2756 30.4517 41.2612L30.4463 40.4556C30.4749 40.4591 30.5197 40.4627 30.5806 40.4663C30.645 40.4735 30.6898 40.4771 30.7148 40.4771C30.9404 40.4771 31.132 40.4466 31.2896 40.3857C31.4471 40.3285 31.5796 40.23 31.687 40.0903C31.798 39.9543 31.8929 39.7663 31.9717 39.5264L32.3853 38.3984ZM31.1982 33.1885L32.7075 37.7002L32.9653 38.7476L32.251 39.1128L30.1133 33.1885H31.1982Z" />
<path d="M38.3955 33.1885V33.9512H35.2534V33.1885H38.3955ZM36.3169 31.7759H37.3105V37.5605C37.3105 37.7575 37.341 37.9061 37.4019 38.0063C37.4627 38.1066 37.5415 38.1729 37.6382 38.2051C37.7349 38.2373 37.8387 38.2534 37.9497 38.2534C38.0321 38.2534 38.118 38.2463 38.2075 38.2319C38.3006 38.214 38.3704 38.1997 38.417 38.189L38.4224 39C38.3436 39.0251 38.2397 39.0483 38.1108 39.0698C37.9855 39.0949 37.8333 39.1074 37.6543 39.1074C37.4108 39.1074 37.187 39.0591 36.9829 38.9624C36.7788 38.8657 36.6159 38.7046 36.4941 38.479C36.376 38.2498 36.3169 37.9419 36.3169 37.5552V31.7759Z" />
<path d="M40.6406 33.1885V39H39.6416V33.1885H40.6406ZM39.5664 31.647C39.5664 31.4858 39.6147 31.3498 39.7114 31.2388C39.8117 31.1278 39.9585 31.0723 40.1519 31.0723C40.3416 31.0723 40.4867 31.1278 40.5869 31.2388C40.6908 31.3498 40.7427 31.4858 40.7427 31.647C40.7427 31.8009 40.6908 31.9334 40.5869 32.0444C40.4867 32.1519 40.3416 32.2056 40.1519 32.2056C39.9585 32.2056 39.8117 32.1519 39.7114 32.0444C39.6147 31.9334 39.5664 31.8009 39.5664 31.647Z" />
<path d="M44.5615 38.291C44.7979 38.291 45.0163 38.2427 45.2168 38.146C45.4173 38.0493 45.582 37.9168 45.7109 37.7485C45.8398 37.5767 45.9132 37.3815 45.9312 37.1631H46.8765C46.8586 37.5068 46.7422 37.8273 46.5273 38.1245C46.3161 38.4181 46.0386 38.6562 45.6948 38.8389C45.3511 39.0179 44.9733 39.1074 44.5615 39.1074C44.1247 39.1074 43.7433 39.0304 43.4175 38.8765C43.0952 38.7225 42.8267 38.5112 42.6118 38.2427C42.4006 37.9741 42.2412 37.6662 42.1338 37.3188C42.0299 36.9679 41.978 36.5973 41.978 36.207V35.9814C41.978 35.5911 42.0299 35.2223 42.1338 34.875C42.2412 34.5241 42.4006 34.2144 42.6118 33.9458C42.8267 33.6772 43.0952 33.466 43.4175 33.312C43.7433 33.158 44.1247 33.0811 44.5615 33.0811C45.0163 33.0811 45.4137 33.1742 45.7539 33.3604C46.0941 33.543 46.3608 33.7936 46.5542 34.1123C46.7511 34.4274 46.8586 34.7855 46.8765 35.1865H45.9312C45.9132 34.9466 45.8452 34.73 45.7271 34.5366C45.6125 34.3433 45.4549 34.1893 45.2544 34.0747C45.0575 33.9565 44.8265 33.8975 44.5615 33.8975C44.2572 33.8975 44.0011 33.9583 43.7935 34.0801C43.5894 34.1982 43.4264 34.3594 43.3047 34.5635C43.1865 34.764 43.1006 34.9878 43.0469 35.2349C42.9967 35.4784 42.9717 35.7272 42.9717 35.9814V36.207C42.9717 36.4613 42.9967 36.7119 43.0469 36.959C43.097 37.2061 43.1812 37.4299 43.2993 37.6304C43.4211 37.8309 43.584 37.992 43.7881 38.1138C43.9958 38.2319 44.2536 38.291 44.5615 38.291Z" />
<path d="M51.3774 37.4585C51.3774 37.3153 51.3452 37.1828 51.2808 37.061C51.2199 36.9357 51.0928 36.8229 50.8994 36.7227C50.7096 36.6188 50.4232 36.5293 50.04 36.4541C49.7178 36.3861 49.4259 36.3055 49.1646 36.2124C48.9067 36.1193 48.6865 36.0065 48.5039 35.874C48.3249 35.7415 48.187 35.5858 48.0903 35.4067C47.9937 35.2277 47.9453 35.0182 47.9453 34.7783C47.9453 34.5492 47.9954 34.3325 48.0957 34.1284C48.1995 33.9243 48.3446 33.7435 48.5308 33.5859C48.7205 33.4284 48.9479 33.3049 49.2129 33.2153C49.4779 33.1258 49.7733 33.0811 50.0991 33.0811C50.5646 33.0811 50.9621 33.1634 51.2915 33.3281C51.6209 33.4928 51.8734 33.7131 52.0488 33.9888C52.2243 34.2609 52.312 34.5635 52.312 34.8965H51.3184C51.3184 34.7354 51.27 34.5796 51.1733 34.4292C51.0802 34.2752 50.9424 34.1481 50.7598 34.0479C50.5807 33.9476 50.3605 33.8975 50.0991 33.8975C49.8234 33.8975 49.5996 33.9404 49.4277 34.0264C49.2594 34.1087 49.1359 34.2144 49.0571 34.3433C48.9819 34.4722 48.9443 34.6082 48.9443 34.7515C48.9443 34.8589 48.9622 34.9556 48.998 35.0415C49.0374 35.1239 49.1055 35.2008 49.2021 35.2725C49.2988 35.3405 49.4349 35.4049 49.6104 35.4658C49.7858 35.5267 50.0096 35.5876 50.2817 35.6484C50.758 35.7559 51.1501 35.8848 51.458 36.0352C51.766 36.1855 51.9951 36.37 52.1455 36.5884C52.2959 36.8068 52.3711 37.0718 52.3711 37.3833C52.3711 37.6375 52.3174 37.8703 52.21 38.0815C52.1061 38.2928 51.9539 38.4754 51.7534 38.6294C51.5565 38.7798 51.3201 38.8979 51.0444 38.9839C50.7723 39.0662 50.4661 39.1074 50.126 39.1074C49.6139 39.1074 49.1807 39.0161 48.8262 38.8335C48.4717 38.6509 48.2031 38.4146 48.0205 38.1245C47.8379 37.8345 47.7466 37.5283 47.7466 37.2061H48.7456C48.7599 37.4782 48.8387 37.6948 48.9819 37.856C49.1252 38.0135 49.3006 38.1263 49.5083 38.1943C49.716 38.2588 49.9219 38.291 50.126 38.291C50.3981 38.291 50.6255 38.2552 50.8081 38.1836C50.9943 38.112 51.1357 38.0135 51.2324 37.8882C51.3291 37.7629 51.3774 37.6196 51.3774 37.4585Z" />
<mask id="mask0_13034_6062" style="mask-type:alpha" maskUnits="userSpaceOnUse" x="20" y="5" width="20" height="20">
<rect x="20" y="5" width="20" height="20" fill="#D9D9D9"/>
</mask>
<g mask="url(#mask0_13034_6062)">
<path d="M30.8334 14.167H36.6251C36.4167 12.6392 35.7815 11.3439 34.7192 10.2812C33.6565 9.21894 32.3612 8.58366 30.8334 8.37533V14.167ZM29.1667 21.6253V8.37533C27.4862 8.58366 26.094 9.31616 24.9901 10.5728C23.8856 11.83 23.3334 13.3059 23.3334 15.0003C23.3334 16.6948 23.8856 18.1703 24.9901 19.427C26.094 20.6842 27.4862 21.417 29.1667 21.6253ZM30.8334 21.6253C32.3612 21.4309 33.6598 20.7989 34.7292 19.7295C35.7987 18.66 36.4306 17.3614 36.6251 15.8337H30.8334V21.6253ZM30.0001 23.3337C28.8473 23.3337 27.764 23.1148 26.7501 22.677C25.7362 22.2398 24.8542 21.6462 24.1042 20.8962C23.3542 20.1462 22.7606 19.2642 22.3234 18.2503C21.8856 17.2364 21.6667 16.1531 21.6667 15.0003C21.6667 13.8475 21.8856 12.7642 22.3234 11.7503C22.7606 10.7364 23.3542 9.85449 24.1042 9.10449C24.8542 8.35449 25.7362 7.7606 26.7501 7.32283C27.764 6.8856 28.8473 6.66699 30.0001 6.66699C31.1529 6.66699 32.2326 6.8856 33.2392 7.32283C34.2465 7.7606 35.1284 8.3581 35.8851 9.11533C36.6423 9.87199 37.2395 10.7539 37.6767 11.7612C38.1145 12.7678 38.3334 13.8475 38.3334 15.0003C38.3334 16.1392 38.1145 17.2156 37.6767 18.2295C37.2395 19.2434 36.6459 20.1287 35.8959 20.8853C35.1459 21.6425 34.264 22.2398 33.2501 22.677C32.2362 23.1148 31.1529 23.3337 30.0001 23.3337Z" />
</g>
</svg>
