<svg width="60" height="50" viewBox="0 0 60 50" fill="none" xmlns="http://www.w3.org/2000/svg">
<mask id="mask0_13034_6058" style="mask-type:alpha" maskUnits="userSpaceOnUse" x="20" y="5" width="20" height="20">
<rect x="20" y="5" width="20" height="20" fill="#D9D9D9"/>
</mask>
<g mask="url(#mask0_13034_6058)">
<path d="M20.8333 21.6663V19.333C20.8333 18.8608 20.9549 18.4266 21.1983 18.0305C21.441 17.635 21.7638 17.333 22.1666 17.1247C23.0277 16.6941 23.9027 16.3711 24.7916 16.1555C25.6805 15.9405 26.5833 15.833 27.4999 15.833C28.4166 15.833 29.3194 15.9405 30.2083 16.1555C31.0971 16.3711 31.9721 16.6941 32.8333 17.1247C33.236 17.333 33.5588 17.635 33.8016 18.0305C34.0449 18.4266 34.1666 18.8608 34.1666 19.333V21.6663H20.8333ZM35.8333 21.6663V19.1663C35.8333 18.5552 35.6633 17.9683 35.3233 17.4055C34.9827 16.8433 34.4999 16.3608 33.8749 15.958C34.5833 16.0413 35.2499 16.1836 35.8749 16.3847C36.4999 16.5863 37.0833 16.833 37.6249 17.1247C38.1249 17.4025 38.5069 17.7113 38.7707 18.0513C39.0346 18.3919 39.1666 18.7636 39.1666 19.1663V21.6663H35.8333ZM27.4999 14.9997C26.5833 14.9997 25.7985 14.6733 25.1458 14.0205C24.493 13.3677 24.1666 12.583 24.1666 11.6663C24.1666 10.7497 24.493 9.96495 25.1458 9.31217C25.7985 8.6594 26.5833 8.33301 27.4999 8.33301C28.4166 8.33301 29.2013 8.6594 29.8541 9.31217C30.5069 9.96495 30.8333 10.7497 30.8333 11.6663C30.8333 12.583 30.5069 13.3677 29.8541 14.0205C29.2013 14.6733 28.4166 14.9997 27.4999 14.9997ZM35.8333 11.6663C35.8333 12.583 35.5069 13.3677 34.8541 14.0205C34.2013 14.6733 33.4166 14.9997 32.4999 14.9997C32.3471 14.9997 32.1527 14.9825 31.9166 14.948C31.6805 14.913 31.486 14.8747 31.3333 14.833C31.7083 14.3886 31.9963 13.8955 32.1974 13.3538C32.3991 12.8122 32.4999 12.2497 32.4999 11.6663C32.4999 11.083 32.3991 10.5205 32.1974 9.97884C31.9963 9.43717 31.7083 8.94412 31.3333 8.49967C31.5277 8.43023 31.7221 8.38495 31.9166 8.36384C32.111 8.34329 32.3055 8.33301 32.4999 8.33301C33.4166 8.33301 34.2013 8.6594 34.8541 9.31217C35.5069 9.96495 35.8333 10.7497 35.8333 11.6663ZM22.4999 19.9997H32.4999V19.333C32.4999 19.1802 32.4619 19.0413 32.3858 18.9163C32.3091 18.7913 32.2083 18.6941 32.0833 18.6247C31.3333 18.2497 30.5763 17.9683 29.8124 17.7805C29.0485 17.5933 28.2777 17.4997 27.4999 17.4997C26.7221 17.4997 25.9513 17.5933 25.1874 17.7805C24.4235 17.9683 23.6666 18.2497 22.9166 18.6247C22.7916 18.6941 22.691 18.7913 22.6149 18.9163C22.5383 19.0413 22.4999 19.1802 22.4999 19.333V19.9997ZM27.4999 13.333C27.9583 13.333 28.3508 13.1697 28.6774 12.843C29.0035 12.5169 29.1666 12.1247 29.1666 11.6663C29.1666 11.208 29.0035 10.8158 28.6774 10.4897C28.3508 10.163 27.9583 9.99967 27.4999 9.99967C27.0416 9.99967 26.6494 10.163 26.3233 10.4897C25.9966 10.8158 25.8333 11.208 25.8333 11.6663C25.8333 12.1247 25.9966 12.5169 26.3233 12.843C26.6494 13.1697 27.0416 13.333 27.4999 13.333Z" />
</g>
<path d="M18.6289 36.5132H19.6602C19.6064 37.0073 19.465 37.4495 19.2358 37.8398C19.0067 38.2301 18.6826 38.5399 18.2637 38.769C17.8447 38.9946 17.3219 39.1074 16.6953 39.1074C16.237 39.1074 15.8198 39.0215 15.4438 38.8496C15.0715 38.6777 14.751 38.4342 14.4824 38.1191C14.2139 37.8005 14.0062 37.4191 13.8594 36.9751C13.7161 36.5275 13.6445 36.0298 13.6445 35.4819V34.7031C13.6445 34.1553 13.7161 33.6593 13.8594 33.2153C14.0062 32.7677 14.2157 32.3846 14.4878 32.0659C14.7635 31.7472 15.0947 31.502 15.4814 31.3301C15.8682 31.1582 16.3032 31.0723 16.7866 31.0723C17.3774 31.0723 17.877 31.1833 18.2852 31.4053C18.6934 31.6273 19.0103 31.9352 19.2358 32.3291C19.465 32.7194 19.6064 33.1724 19.6602 33.688H18.6289C18.5788 33.3228 18.4857 33.0094 18.3496 32.748C18.2135 32.4831 18.0202 32.279 17.7695 32.1357C17.5189 31.9925 17.1912 31.9209 16.7866 31.9209C16.4393 31.9209 16.1331 31.9871 15.8682 32.1196C15.6068 32.2521 15.3866 32.4401 15.2075 32.6836C15.0321 32.9271 14.8996 33.2189 14.8101 33.5591C14.7205 33.8993 14.6758 34.277 14.6758 34.6924V35.4819C14.6758 35.8651 14.7152 36.2249 14.7939 36.5615C14.8763 36.8981 14.9998 37.1935 15.1646 37.4478C15.3293 37.702 15.5387 37.9025 15.793 38.0493C16.0472 38.1925 16.348 38.2642 16.6953 38.2642C17.1357 38.2642 17.4867 38.1943 17.748 38.0547C18.0094 37.915 18.2064 37.7145 18.3389 37.4531C18.4749 37.1917 18.5716 36.8784 18.6289 36.5132Z" />
<path d="M22.002 30.75V39H21.0029V30.75H22.002Z" />
<path d="M24.6768 33.1885V39H23.6777V33.1885H24.6768ZM23.6025 31.647C23.6025 31.4858 23.6509 31.3498 23.7476 31.2388C23.8478 31.1278 23.9946 31.0723 24.188 31.0723C24.3778 31.0723 24.5228 31.1278 24.623 31.2388C24.7269 31.3498 24.7788 31.4858 24.7788 31.647C24.7788 31.8009 24.7269 31.9334 24.623 32.0444C24.5228 32.1519 24.3778 32.2056 24.188 32.2056C23.9946 32.2056 23.8478 32.1519 23.7476 32.0444C23.6509 31.9334 23.6025 31.8009 23.6025 31.647Z" />
<path d="M28.6836 39.1074C28.279 39.1074 27.9119 39.0394 27.5825 38.9033C27.2567 38.7637 26.9756 38.5685 26.7393 38.3179C26.5065 38.0672 26.3275 37.77 26.2021 37.4263C26.0768 37.0825 26.0142 36.7065 26.0142 36.2983V36.0728C26.0142 35.6001 26.084 35.1794 26.2236 34.8105C26.3633 34.4382 26.5531 34.123 26.793 33.8652C27.0329 33.6074 27.305 33.4123 27.6094 33.2798C27.9137 33.1473 28.2288 33.0811 28.5547 33.0811C28.9701 33.0811 29.3281 33.1527 29.6289 33.2959C29.9333 33.4391 30.1821 33.6396 30.3755 33.8975C30.5688 34.1517 30.7121 34.4525 30.8052 34.7998C30.8983 35.1436 30.9448 35.5195 30.9448 35.9277V36.3735H26.605V35.5625H29.9512V35.4873C29.9368 35.2295 29.8831 34.9788 29.79 34.7354C29.7005 34.4919 29.5573 34.2913 29.3604 34.1338C29.1634 33.9762 28.8949 33.8975 28.5547 33.8975C28.3291 33.8975 28.1214 33.9458 27.9316 34.0425C27.7419 34.1356 27.5789 34.2752 27.4429 34.4614C27.3068 34.6476 27.2012 34.875 27.126 35.1436C27.0508 35.4121 27.0132 35.7218 27.0132 36.0728V36.2983C27.0132 36.5741 27.0508 36.8337 27.126 37.0771C27.2048 37.3171 27.3175 37.5283 27.4644 37.7109C27.6147 37.8936 27.7956 38.0368 28.0068 38.1406C28.2217 38.2445 28.4652 38.2964 28.7373 38.2964C29.0882 38.2964 29.3854 38.2248 29.6289 38.0815C29.8724 37.9383 30.0854 37.7467 30.2681 37.5068L30.8696 37.9849C30.7443 38.1746 30.585 38.3555 30.3916 38.5273C30.1982 38.6992 29.9601 38.8389 29.6772 38.9463C29.3979 39.0537 29.0667 39.1074 28.6836 39.1074Z" />
<path d="M33.0986 34.4292V39H32.105V33.1885H33.0449L33.0986 34.4292ZM32.8623 35.874L32.4487 35.8579C32.4523 35.4604 32.5114 35.0934 32.626 34.7568C32.7406 34.4167 32.9017 34.1213 33.1094 33.8706C33.3171 33.62 33.5641 33.4266 33.8506 33.2905C34.1406 33.1509 34.4611 33.0811 34.812 33.0811C35.0985 33.0811 35.3563 33.1204 35.5854 33.1992C35.8146 33.2744 36.0098 33.3962 36.1709 33.5645C36.3356 33.7327 36.4609 33.9512 36.5469 34.2197C36.6328 34.4847 36.6758 34.8088 36.6758 35.1919V39H35.6768V35.1812C35.6768 34.8768 35.632 34.6333 35.5425 34.4507C35.453 34.2645 35.3223 34.1302 35.1504 34.0479C34.9785 33.9619 34.7673 33.9189 34.5166 33.9189C34.2695 33.9189 34.0439 33.9709 33.8398 34.0747C33.6393 34.1785 33.4657 34.3218 33.3188 34.5044C33.1756 34.687 33.0628 34.8965 32.9805 35.1328C32.9017 35.3656 32.8623 35.6126 32.8623 35.874Z" />
<path d="M40.6182 33.1885V33.9512H37.4761V33.1885H40.6182ZM38.5396 31.7759H39.5332V37.5605C39.5332 37.7575 39.5636 37.9061 39.6245 38.0063C39.6854 38.1066 39.7642 38.1729 39.8608 38.2051C39.9575 38.2373 40.0614 38.2534 40.1724 38.2534C40.2547 38.2534 40.3407 38.2463 40.4302 38.2319C40.5233 38.214 40.5931 38.1997 40.6396 38.189L40.645 39C40.5662 39.0251 40.4624 39.0483 40.3335 39.0698C40.2082 39.0949 40.056 39.1074 39.877 39.1074C39.6335 39.1074 39.4097 39.0591 39.2056 38.9624C39.0015 38.8657 38.8385 38.7046 38.7168 38.479C38.5986 38.2498 38.5396 37.9419 38.5396 37.5552V31.7759Z" />
<path d="M45.1675 37.4585C45.1675 37.3153 45.1353 37.1828 45.0708 37.061C45.0099 36.9357 44.8828 36.8229 44.6895 36.7227C44.4997 36.6188 44.2132 36.5293 43.8301 36.4541C43.5078 36.3861 43.216 36.3055 42.9546 36.2124C42.6968 36.1193 42.4766 36.0065 42.2939 35.874C42.1149 35.7415 41.9771 35.5858 41.8804 35.4067C41.7837 35.2277 41.7354 35.0182 41.7354 34.7783C41.7354 34.5492 41.7855 34.3325 41.8857 34.1284C41.9896 33.9243 42.1346 33.7435 42.3208 33.5859C42.5106 33.4284 42.738 33.3049 43.0029 33.2153C43.2679 33.1258 43.5633 33.0811 43.8892 33.0811C44.3547 33.0811 44.7521 33.1634 45.0815 33.3281C45.411 33.4928 45.6634 33.7131 45.8389 33.9888C46.0143 34.2609 46.1021 34.5635 46.1021 34.8965H45.1084C45.1084 34.7354 45.0601 34.5796 44.9634 34.4292C44.8703 34.2752 44.7324 34.1481 44.5498 34.0479C44.3708 33.9476 44.1506 33.8975 43.8892 33.8975C43.6134 33.8975 43.3896 33.9404 43.2178 34.0264C43.0495 34.1087 42.9259 34.2144 42.8472 34.3433C42.772 34.4722 42.7344 34.6082 42.7344 34.7515C42.7344 34.8589 42.7523 34.9556 42.7881 35.0415C42.8275 35.1239 42.8955 35.2008 42.9922 35.2725C43.0889 35.3405 43.2249 35.4049 43.4004 35.4658C43.5758 35.5267 43.7996 35.5876 44.0718 35.6484C44.548 35.7559 44.9401 35.8848 45.248 36.0352C45.556 36.1855 45.7852 36.37 45.9355 36.5884C46.0859 36.8068 46.1611 37.0718 46.1611 37.3833C46.1611 37.6375 46.1074 37.8703 46 38.0815C45.8962 38.2928 45.744 38.4754 45.5435 38.6294C45.3465 38.7798 45.1102 38.8979 44.8345 38.9839C44.5623 39.0662 44.2562 39.1074 43.916 39.1074C43.404 39.1074 42.9707 39.0161 42.6162 38.8335C42.2617 38.6509 41.9932 38.4146 41.8105 38.1245C41.6279 37.8345 41.5366 37.5283 41.5366 37.2061H42.5356C42.55 37.4782 42.6287 37.6948 42.772 37.856C42.9152 38.0135 43.0907 38.1263 43.2983 38.1943C43.506 38.2588 43.7119 38.291 43.916 38.291C44.1882 38.291 44.4155 38.2552 44.5981 38.1836C44.7843 38.112 44.9258 38.0135 45.0225 37.8882C45.1191 37.7629 45.1675 37.6196 45.1675 37.4585Z" />
</svg>
