<svg width="60" height="50" viewBox="0 0 60 50" fill="none" xmlns="http://www.w3.org/2000/svg">
<g clip-path="url(#clip0_13034_6075)">
<path d="M11.8027 36.5132H12.834C12.7803 37.0073 12.6388 37.4495 12.4097 37.8398C12.1805 38.2301 11.8565 38.5399 11.4375 38.769C11.0186 38.9946 10.4958 39.1074 9.86914 39.1074C9.41081 39.1074 8.99365 39.0215 8.61768 38.8496C8.24528 38.6777 7.9248 38.4342 7.65625 38.1191C7.3877 37.8005 7.18001 37.4191 7.0332 36.9751C6.88997 36.5275 6.81836 36.0298 6.81836 35.4819V34.7031C6.81836 34.1553 6.88997 33.6593 7.0332 33.2153C7.18001 32.7677 7.38949 32.3846 7.66162 32.0659C7.93734 31.7472 8.26855 31.502 8.65527 31.3301C9.04199 31.1582 9.47705 31.0723 9.96045 31.0723C10.5513 31.0723 11.0508 31.1833 11.459 31.4053C11.8672 31.6273 12.1841 31.9352 12.4097 32.3291C12.6388 32.7194 12.7803 33.1724 12.834 33.688H11.8027C11.7526 33.3228 11.6595 33.0094 11.5234 32.748C11.3874 32.4831 11.194 32.279 10.9434 32.1357C10.6927 31.9925 10.3651 31.9209 9.96045 31.9209C9.61312 31.9209 9.30697 31.9871 9.04199 32.1196C8.7806 32.2521 8.56038 32.4401 8.38135 32.6836C8.20589 32.9271 8.0734 33.2189 7.98389 33.5591C7.89437 33.8993 7.84961 34.277 7.84961 34.6924V35.4819C7.84961 35.8651 7.889 36.2249 7.96777 36.5615C8.05013 36.8981 8.17367 37.1935 8.33838 37.4478C8.50309 37.702 8.71257 37.9025 8.9668 38.0493C9.22103 38.1925 9.52181 38.2642 9.86914 38.2642C10.3096 38.2642 10.6605 38.1943 10.9219 38.0547C11.1833 37.915 11.3802 37.7145 11.5127 37.4531C11.6488 37.1917 11.7454 36.8784 11.8027 36.5132Z" />
<path d="M13.833 36.1587V36.0352C13.833 35.6162 13.8939 35.2277 14.0156 34.8696C14.1374 34.508 14.3128 34.1947 14.542 33.9297C14.7712 33.6611 15.0487 33.4535 15.3745 33.3066C15.7004 33.1562 16.0656 33.0811 16.4702 33.0811C16.8784 33.0811 17.2454 33.1562 17.5713 33.3066C17.9007 33.4535 18.18 33.6611 18.4092 33.9297C18.6419 34.1947 18.8192 34.508 18.9409 34.8696C19.0627 35.2277 19.1235 35.6162 19.1235 36.0352V36.1587C19.1235 36.5776 19.0627 36.9661 18.9409 37.3242C18.8192 37.6823 18.6419 37.9956 18.4092 38.2642C18.18 38.5291 17.9025 38.7368 17.5767 38.8872C17.2544 39.034 16.8892 39.1074 16.481 39.1074C16.0728 39.1074 15.7057 39.034 15.3799 38.8872C15.054 38.7368 14.7747 38.5291 14.542 38.2642C14.3128 37.9956 14.1374 37.6823 14.0156 37.3242C13.8939 36.9661 13.833 36.5776 13.833 36.1587ZM14.8267 36.0352V36.1587C14.8267 36.4487 14.8607 36.7227 14.9287 36.9805C14.9967 37.2347 15.0988 37.4603 15.2349 37.6572C15.3745 37.8542 15.5482 38.0099 15.7559 38.1245C15.9635 38.2355 16.2052 38.291 16.481 38.291C16.7531 38.291 16.9912 38.2355 17.1953 38.1245C17.403 38.0099 17.5749 37.8542 17.7109 37.6572C17.847 37.4603 17.9491 37.2347 18.0171 36.9805C18.0887 36.7227 18.1245 36.4487 18.1245 36.1587V36.0352C18.1245 35.7487 18.0887 35.4784 18.0171 35.2241C17.9491 34.9663 17.8452 34.7389 17.7056 34.542C17.5695 34.3415 17.3976 34.1839 17.1899 34.0693C16.9858 33.9548 16.7459 33.8975 16.4702 33.8975C16.1981 33.8975 15.9582 33.9548 15.7505 34.0693C15.5464 34.1839 15.3745 34.3415 15.2349 34.542C15.0988 34.7389 14.9967 34.9663 14.9287 35.2241C14.8607 35.4784 14.8267 35.7487 14.8267 36.0352Z" />
<path d="M21.3633 34.4292V39H20.3696V33.1885H21.3096L21.3633 34.4292ZM21.127 35.874L20.7134 35.8579C20.717 35.4604 20.776 35.0934 20.8906 34.7568C21.0052 34.4167 21.1663 34.1213 21.374 33.8706C21.5817 33.62 21.8288 33.4266 22.1152 33.2905C22.4053 33.1509 22.7257 33.0811 23.0767 33.0811C23.3631 33.0811 23.6209 33.1204 23.8501 33.1992C24.0793 33.2744 24.2744 33.3962 24.4355 33.5645C24.6003 33.7327 24.7256 33.9512 24.8115 34.2197C24.8975 34.4847 24.9404 34.8088 24.9404 35.1919V39H23.9414V35.1812C23.9414 34.8768 23.8966 34.6333 23.8071 34.4507C23.7176 34.2645 23.5869 34.1302 23.415 34.0479C23.2432 33.9619 23.0319 33.9189 22.7812 33.9189C22.5342 33.9189 22.3086 33.9709 22.1045 34.0747C21.904 34.1785 21.7303 34.3218 21.5835 34.5044C21.4403 34.687 21.3275 34.8965 21.2451 35.1328C21.1663 35.3656 21.127 35.6126 21.127 35.874Z" />
<path d="M28.8828 33.189V33.9517H25.7407V33.189H28.8828ZM26.8042 31.7764H27.7979V37.561C27.7979 37.758 27.8283 37.9066 27.8892 38.0068C27.95 38.1071 28.0288 38.1734 28.1255 38.2056C28.2222 38.2378 28.326 38.2539 28.437 38.2539C28.5194 38.2539 28.6053 38.2468 28.6948 38.2324C28.7879 38.2145 28.8577 38.2002 28.9043 38.1895L28.9097 39.0005C28.8309 39.0256 28.7271 39.0488 28.5981 39.0703C28.4728 39.0954 28.3206 39.1079 28.1416 39.1079C27.8981 39.1079 27.6743 39.0596 27.4702 38.9629C27.2661 38.8662 27.1032 38.7051 26.9814 38.4795C26.8633 38.2503 26.8042 37.9424 26.8042 37.5557V31.7764Z" />
<path d="M31.042 34.1016V39H30.0483V33.1885H31.0151L31.042 34.1016ZM32.8574 33.1562L32.8521 34.0801C32.7697 34.0622 32.6909 34.0514 32.6157 34.0479C32.5441 34.0407 32.4618 34.0371 32.3687 34.0371C32.1395 34.0371 31.9372 34.0729 31.7617 34.1445C31.5863 34.2161 31.4377 34.3164 31.3159 34.4453C31.1942 34.5742 31.0975 34.7282 31.0259 34.9072C30.9578 35.0827 30.9131 35.276 30.8916 35.4873L30.6123 35.6484C30.6123 35.2975 30.6463 34.9681 30.7144 34.6602C30.786 34.3522 30.8952 34.0801 31.042 33.8438C31.1888 33.6038 31.375 33.4176 31.6006 33.2852C31.8298 33.1491 32.1019 33.0811 32.417 33.0811C32.4886 33.0811 32.571 33.09 32.6641 33.1079C32.7572 33.1222 32.8216 33.1383 32.8574 33.1562Z" />
<path d="M36.9878 38.0063V35.0146C36.9878 34.7855 36.9412 34.5868 36.8481 34.4185C36.7586 34.2466 36.6226 34.1141 36.4399 34.021C36.2573 33.9279 36.0317 33.8813 35.7632 33.8813C35.5125 33.8813 35.2923 33.9243 35.1025 34.0103C34.9163 34.0962 34.7695 34.209 34.6621 34.3486C34.5583 34.4883 34.5063 34.6387 34.5063 34.7998H33.5127C33.5127 34.5921 33.5664 34.3862 33.6738 34.1821C33.7812 33.978 33.9352 33.7936 34.1357 33.6289C34.3398 33.4606 34.5833 33.3281 34.8662 33.2314C35.1527 33.1312 35.4714 33.0811 35.8223 33.0811C36.2448 33.0811 36.6172 33.1527 36.9395 33.2959C37.2653 33.4391 37.5195 33.6558 37.7021 33.9458C37.8883 34.2323 37.9814 34.5921 37.9814 35.0254V37.7324C37.9814 37.9258 37.9976 38.1317 38.0298 38.3501C38.0656 38.5685 38.1175 38.7565 38.1855 38.9141V39H37.1489C37.0988 38.8854 37.0594 38.7332 37.0308 38.5435C37.0021 38.3501 36.9878 38.1711 36.9878 38.0063ZM37.1597 35.4766L37.1704 36.1748H36.166C35.8831 36.1748 35.6307 36.1981 35.4087 36.2446C35.1867 36.2876 35.0005 36.3538 34.8501 36.4434C34.6997 36.5329 34.5851 36.6457 34.5063 36.7817C34.4276 36.9142 34.3882 37.07 34.3882 37.249C34.3882 37.4316 34.4294 37.5981 34.5117 37.7485C34.5941 37.8989 34.7176 38.0189 34.8823 38.1084C35.0506 38.1943 35.2565 38.2373 35.5 38.2373C35.8044 38.2373 36.0729 38.1729 36.3057 38.0439C36.5384 37.915 36.7228 37.7575 36.8589 37.5713C36.9985 37.3851 37.0737 37.2043 37.0845 37.0288L37.5088 37.5068C37.4837 37.6572 37.4157 37.8237 37.3047 38.0063C37.1937 38.189 37.0451 38.3644 36.8589 38.5327C36.6763 38.6974 36.4578 38.8353 36.2036 38.9463C35.953 39.0537 35.6701 39.1074 35.355 39.1074C34.9611 39.1074 34.6156 39.0304 34.3184 38.8765C34.0247 38.7225 33.7956 38.5166 33.6309 38.2588C33.4697 37.9974 33.3892 37.7056 33.3892 37.3833C33.3892 37.0718 33.45 36.7979 33.5718 36.5615C33.6935 36.3216 33.869 36.1229 34.0981 35.9653C34.3273 35.8042 34.603 35.6825 34.9253 35.6001C35.2476 35.5177 35.6074 35.4766 36.0049 35.4766H37.1597Z" />
<path d="M41.8701 38.291C42.1064 38.291 42.3249 38.2427 42.5254 38.146C42.7259 38.0493 42.8906 37.9168 43.0195 37.7485C43.1484 37.5767 43.2218 37.3815 43.2397 37.1631H44.1851C44.1672 37.5068 44.0508 37.8273 43.8359 38.1245C43.6247 38.4181 43.3472 38.6562 43.0034 38.8389C42.6597 39.0179 42.2819 39.1074 41.8701 39.1074C41.4333 39.1074 41.0519 39.0304 40.7261 38.8765C40.4038 38.7225 40.1353 38.5112 39.9204 38.2427C39.7091 37.9741 39.5498 37.6662 39.4424 37.3188C39.3385 36.9679 39.2866 36.5973 39.2866 36.207V35.9814C39.2866 35.5911 39.3385 35.2223 39.4424 34.875C39.5498 34.5241 39.7091 34.2144 39.9204 33.9458C40.1353 33.6772 40.4038 33.466 40.7261 33.312C41.0519 33.158 41.4333 33.0811 41.8701 33.0811C42.3249 33.0811 42.7223 33.1742 43.0625 33.3604C43.4027 33.543 43.6694 33.7936 43.8628 34.1123C44.0597 34.4274 44.1672 34.7855 44.1851 35.1865H43.2397C43.2218 34.9466 43.1538 34.73 43.0356 34.5366C42.9211 34.3433 42.7635 34.1893 42.563 34.0747C42.366 33.9565 42.1351 33.8975 41.8701 33.8975C41.5658 33.8975 41.3097 33.9583 41.1021 34.0801C40.8979 34.1982 40.735 34.3594 40.6133 34.5635C40.4951 34.764 40.4092 34.9878 40.3555 35.2349C40.3053 35.4784 40.2803 35.7272 40.2803 35.9814V36.207C40.2803 36.4613 40.3053 36.7119 40.3555 36.959C40.4056 37.2061 40.4897 37.4299 40.6079 37.6304C40.7297 37.8309 40.8926 37.992 41.0967 38.1138C41.3044 38.2319 41.5622 38.291 41.8701 38.291Z" />
<path d="M47.7354 33.189V33.9517H44.5933V33.189H47.7354ZM45.6567 31.7764H46.6504V37.561C46.6504 37.758 46.6808 37.9066 46.7417 38.0068C46.8026 38.1071 46.8813 38.1734 46.978 38.2056C47.0747 38.2378 47.1785 38.2539 47.2896 38.2539C47.3719 38.2539 47.4578 38.2468 47.5474 38.2324C47.6405 38.2145 47.7103 38.2002 47.7568 38.1895L47.7622 39.0005C47.6834 39.0256 47.5796 39.0488 47.4507 39.0703C47.3254 39.0954 47.1732 39.1079 46.9941 39.1079C46.7507 39.1079 46.5269 39.0596 46.3228 38.9629C46.1187 38.8662 45.9557 38.7051 45.834 38.4795C45.7158 38.2503 45.6567 37.9424 45.6567 37.5557V31.7764Z" />
<path d="M52.2847 37.4585C52.2847 37.3153 52.2524 37.1828 52.188 37.061C52.1271 36.9357 52 36.8229 51.8066 36.7227C51.6169 36.6188 51.3304 36.5293 50.9473 36.4541C50.625 36.3861 50.3332 36.3055 50.0718 36.2124C49.814 36.1193 49.5938 36.0065 49.4111 35.874C49.2321 35.7415 49.0942 35.5858 48.9976 35.4067C48.9009 35.2277 48.8525 35.0182 48.8525 34.7783C48.8525 34.5492 48.9027 34.3325 49.0029 34.1284C49.1068 33.9243 49.2518 33.7435 49.438 33.5859C49.6278 33.4284 49.8551 33.3049 50.1201 33.2153C50.3851 33.1258 50.6805 33.0811 51.0063 33.0811C51.4718 33.0811 51.8693 33.1634 52.1987 33.3281C52.5282 33.4928 52.7806 33.7131 52.9561 33.9888C53.1315 34.2609 53.2192 34.5635 53.2192 34.8965H52.2256C52.2256 34.7354 52.1772 34.5796 52.0806 34.4292C51.9875 34.2752 51.8496 34.1481 51.667 34.0479C51.488 33.9476 51.2677 33.8975 51.0063 33.8975C50.7306 33.8975 50.5068 33.9404 50.335 34.0264C50.1667 34.1087 50.0431 34.2144 49.9644 34.3433C49.8892 34.4722 49.8516 34.6082 49.8516 34.7515C49.8516 34.8589 49.8695 34.9556 49.9053 35.0415C49.9447 35.1239 50.0127 35.2008 50.1094 35.2725C50.2061 35.3405 50.3421 35.4049 50.5176 35.4658C50.693 35.5267 50.9168 35.5876 51.189 35.6484C51.6652 35.7559 52.0573 35.8848 52.3652 36.0352C52.6732 36.1855 52.9023 36.37 53.0527 36.5884C53.2031 36.8068 53.2783 37.0718 53.2783 37.3833C53.2783 37.6375 53.2246 37.8703 53.1172 38.0815C53.0133 38.2928 52.8612 38.4754 52.6606 38.6294C52.4637 38.7798 52.2274 38.8979 51.9517 38.9839C51.6795 39.0662 51.3734 39.1074 51.0332 39.1074C50.5212 39.1074 50.0879 39.0161 49.7334 38.8335C49.3789 38.6509 49.1104 38.4146 48.9277 38.1245C48.7451 37.8345 48.6538 37.5283 48.6538 37.2061H49.6528C49.6672 37.4782 49.7459 37.6948 49.8892 37.856C50.0324 38.0135 50.2078 38.1263 50.4155 38.1943C50.6232 38.2588 50.8291 38.291 51.0332 38.291C51.3053 38.291 51.5327 38.2552 51.7153 38.1836C51.9015 38.112 52.043 38.0135 52.1396 37.8882C52.2363 37.7629 52.2847 37.6196 52.2847 37.4585Z" />
<mask id="mask0_13034_6075" style="mask-type:alpha" maskUnits="userSpaceOnUse" x="20" y="5" width="20" height="20">
<path d="M40 5H20V25H40V5Z" fill="#D9D9D9"/>
</mask>
<g mask="url(#mask0_13034_6075)">
<path d="M35 20C35.3472 20 35.6422 19.8783 35.885 19.635C36.1283 19.3922 36.25 19.0972 36.25 18.75C36.25 18.4028 36.1283 18.1078 35.885 17.865C35.6422 17.6217 35.3472 17.5 35 17.5C34.6528 17.5 34.3578 17.6217 34.115 17.865C33.8717 18.1078 33.75 18.4028 33.75 18.75C33.75 19.0972 33.8717 19.3922 34.115 19.635C34.3578 19.8783 34.6528 20 35 20ZM35 22.5C35.4167 22.5 35.8056 22.4028 36.1667 22.2083C36.5278 22.0139 36.8264 21.7431 37.0625 21.3958C36.7431 21.2014 36.4097 21.0592 36.0625 20.9692C35.7153 20.8786 35.3611 20.8333 35 20.8333C34.6389 20.8333 34.2847 20.8786 33.9375 20.9692C33.5903 21.0592 33.2569 21.2014 32.9375 21.3958C33.1736 21.7431 33.4722 22.0139 33.8333 22.2083C34.1944 22.4028 34.5833 22.5 35 22.5ZM24.1667 22.5C23.7083 22.5 23.3158 22.3369 22.9892 22.0108C22.6631 21.6842 22.5 21.2917 22.5 20.8333V9.16667C22.5 8.70833 22.6631 8.31583 22.9892 7.98917C23.3158 7.66306 23.7083 7.5 24.1667 7.5H35.8333C36.2917 7.5 36.6842 7.66306 37.0108 7.98917C37.3369 8.31583 37.5 8.70833 37.5 9.16667V14.75C37.2361 14.625 36.9653 14.5172 36.6875 14.4267C36.4097 14.3367 36.125 14.2708 35.8333 14.2292V9.16667H24.1667V20.8333H29.2083C29.25 21.1389 29.3161 21.4306 29.4067 21.7083C29.4967 21.9861 29.6042 22.25 29.7292 22.5H24.1667ZM24.1667 20.8333V9.16667V14.2292V14.1667V20.8333ZM25.8333 19.1667H29.2292C29.2708 18.875 29.3367 18.5903 29.4267 18.3125C29.5172 18.0347 29.6181 17.7639 29.7292 17.5H25.8333V19.1667ZM25.8333 15.8333H30.9167C31.3611 15.4167 31.8575 15.0694 32.4058 14.7917C32.9547 14.5139 33.5417 14.3264 34.1667 14.2292V14.1667H25.8333V15.8333ZM25.8333 12.5H34.1667V10.8333H25.8333V12.5ZM35 24.1667C33.8472 24.1667 32.8647 23.7606 32.0525 22.9483C31.2397 22.1356 30.8333 21.1528 30.8333 20C30.8333 18.8472 31.2397 17.8644 32.0525 17.0517C32.8647 16.2394 33.8472 15.8333 35 15.8333C36.1528 15.8333 37.1356 16.2394 37.9483 17.0517C38.7606 17.8644 39.1667 18.8472 39.1667 20C39.1667 21.1528 38.7606 22.1356 37.9483 22.9483C37.1356 23.7606 36.1528 24.1667 35 24.1667Z" />
</g>
</g>
<defs>
<clipPath id="clip0_13034_6075">
<rect width="48" height="35" fill="white" transform="translate(6 5)"/>
</clipPath>
</defs>
</svg>
