<svg width="60" height="50" viewBox="0 0 60 50" fill="none" xmlns="http://www.w3.org/2000/svg">
<path d="M21 21C19.89 21 19 21.89 19 23V27C19 28.11 19.89 29 21 29H25C26.11 29 27 28.11 27 27V23C27 21.89 26.11 21 25 21M25.2 22.5L26.26 23.55L22.27 27.5L19.74 24.95L20.81 23.9L22.28 25.39M21 11C19.89 11 19 11.89 19 13V17C19 18.11 19.89 19 21 19H25C26.11 19 27 18.11 27 17V13C27 11.89 26.11 11 25 11M21 13H25V17H21M29 13H39V15H29M29 27V25H39V27M29 19H39V21H29V19Z"/>
<path d="M5.89062 43.9453V45H2.11133V43.9453H5.89062ZM2.52148 37.8906V45H1.17871V37.8906H2.52148ZM5.39746 40.8252V41.8555H2.11133V40.8252H5.39746ZM5.87598 37.8906V38.9502H2.11133V37.8906H5.87598ZM10.202 47.0312V40.7812L10.3582 39.7168H11.5008V47.0312H10.202ZM6.81332 42.4121V42.3096C6.81332 41.9059 6.85889 41.5397 6.95004 41.2109C7.04118 40.8789 7.17465 40.5957 7.35043 40.3613C7.52947 40.1237 7.74756 39.9414 8.00473 39.8145C8.26189 39.6842 8.55648 39.6191 8.88852 39.6191C9.21404 39.6191 9.49561 39.6826 9.73324 39.8096C9.97087 39.9365 10.1727 40.1172 10.3387 40.3516C10.5047 40.5827 10.6366 40.8577 10.7342 41.1768C10.8351 41.4958 10.91 41.849 10.9588 42.2363V42.5146C10.91 42.8857 10.8351 43.2292 10.7342 43.5449C10.6366 43.8574 10.5047 44.1309 10.3387 44.3652C10.176 44.5964 9.97413 44.777 9.73324 44.9072C9.49236 45.0342 9.20753 45.0977 8.87875 45.0977C8.54997 45.0977 8.25701 45.0309 7.99984 44.8975C7.74594 44.7607 7.52947 44.5719 7.35043 44.3311C7.17465 44.0902 7.04118 43.807 6.95004 43.4814C6.85889 43.1527 6.81332 42.7962 6.81332 42.4121ZM8.10727 42.3096V42.4121C8.10727 42.6432 8.1268 42.8597 8.16586 43.0615C8.20818 43.2601 8.27328 43.4359 8.36117 43.5889C8.44906 43.7419 8.56137 43.8623 8.69809 43.9502C8.83806 44.0381 9.00733 44.082 9.2059 44.082C9.47283 44.082 9.6893 44.0234 9.85531 43.9062C10.0246 43.7891 10.1515 43.6312 10.2362 43.4326C10.3241 43.2308 10.381 43.0062 10.4071 42.7588V41.9971C10.3908 41.7985 10.3566 41.6162 10.3045 41.4502C10.2524 41.2842 10.1792 41.141 10.0848 41.0205C9.99366 40.9001 9.87647 40.8057 9.73324 40.7373C9.59001 40.6689 9.41749 40.6348 9.21566 40.6348C9.0171 40.6348 8.84783 40.6787 8.70785 40.7666C8.56788 40.8512 8.45395 40.9701 8.36605 41.123C8.27816 41.276 8.21306 41.4535 8.17074 41.6553C8.12842 41.8571 8.10727 42.0752 8.10727 42.3096ZM16.2468 43.7451V39.7168H17.5456V45H16.3249L16.2468 43.7451ZM16.4128 42.6514L16.8132 42.6416C16.8132 42.9964 16.7741 43.3236 16.696 43.623C16.6179 43.9225 16.4958 44.1829 16.3298 44.4043C16.167 44.6224 15.9603 44.7933 15.7096 44.917C15.459 45.0374 15.1628 45.0977 14.821 45.0977C14.5606 45.0977 14.3229 45.0618 14.1081 44.9902C13.8932 44.9154 13.7077 44.7998 13.5514 44.6436C13.3985 44.484 13.2796 44.2806 13.195 44.0332C13.1104 43.7826 13.068 43.4814 13.068 43.1299V39.7168H14.3571V43.1396C14.3571 43.3154 14.3766 43.4619 14.4157 43.5791C14.458 43.6963 14.515 43.7923 14.5866 43.8672C14.6615 43.9388 14.7477 43.9909 14.8454 44.0234C14.9463 44.0527 15.0537 44.0674 15.1677 44.0674C15.4802 44.0674 15.7259 44.0055 15.905 43.8818C16.0873 43.7549 16.2175 43.5856 16.2956 43.374C16.3737 43.1592 16.4128 42.9183 16.4128 42.6514ZM20.4654 39.7168V45H19.1714V39.7168H20.4654ZM19.0835 38.335C19.0835 38.1429 19.1486 37.9834 19.2788 37.8564C19.4123 37.7295 19.5913 37.666 19.8159 37.666C20.0405 37.666 20.218 37.7295 20.3482 37.8564C20.4816 37.9834 20.5484 38.1429 20.5484 38.335C20.5484 38.5238 20.4816 38.6816 20.3482 38.8086C20.218 38.9355 20.0405 38.999 19.8159 38.999C19.5913 38.999 19.4123 38.9355 19.2788 38.8086C19.1486 38.6816 19.0835 38.5238 19.0835 38.335ZM23.3949 40.7324V47.0312H22.1009V39.7168H23.2972L23.3949 40.7324ZM26.7884 42.3047V42.4072C26.7884 42.7913 26.7429 43.1478 26.6517 43.4766C26.5638 43.8021 26.4336 44.0869 26.2611 44.3311C26.0886 44.5719 25.8737 44.7607 25.6166 44.8975C25.3627 45.0309 25.0697 45.0977 24.7377 45.0977C24.4121 45.0977 24.1289 45.0358 23.888 44.9121C23.6472 44.7852 23.4437 44.6061 23.2777 44.375C23.1117 44.1439 22.9782 43.8753 22.8773 43.5693C22.7796 43.2601 22.7064 42.9232 22.6576 42.5586V42.2314C22.7064 41.8441 22.7796 41.4925 22.8773 41.1768C22.9782 40.8577 23.1117 40.5827 23.2777 40.3516C23.4437 40.1172 23.6455 39.9365 23.8832 39.8096C24.124 39.6826 24.4056 39.6191 24.7279 39.6191C25.0632 39.6191 25.3578 39.6826 25.6117 39.8096C25.8688 39.9365 26.0853 40.1188 26.2611 40.3564C26.4369 40.5941 26.5687 40.8773 26.6566 41.2061C26.7445 41.5348 26.7884 41.901 26.7884 42.3047ZM25.4945 42.4072V42.3047C25.4945 42.0703 25.4733 41.8538 25.431 41.6553C25.3887 41.4535 25.3236 41.2777 25.2357 41.1279C25.1478 40.9749 25.0339 40.8561 24.8939 40.7715C24.7539 40.6868 24.5847 40.6445 24.3861 40.6445C24.1875 40.6445 24.0166 40.6771 23.8734 40.7422C23.7302 40.8073 23.613 40.9001 23.5218 41.0205C23.4307 41.141 23.3591 41.2842 23.307 41.4502C23.2582 41.613 23.2256 41.7936 23.2093 41.9922V42.8027C23.2386 43.0436 23.2956 43.2601 23.3802 43.4521C23.4649 43.6442 23.5886 43.7972 23.7513 43.9111C23.9173 44.0251 24.1322 44.082 24.3959 44.082C24.5944 44.082 24.7637 44.0381 24.9037 43.9502C25.0436 43.8623 25.1576 43.7419 25.2455 43.5889C25.3334 43.4326 25.3968 43.2536 25.4359 43.0518C25.475 42.8499 25.4945 42.6351 25.4945 42.4072ZM29.425 40.8008V45H28.1359V39.7168H29.3518L29.425 40.8008ZM29.2346 42.168H28.8391C28.8391 41.8001 28.883 41.4616 28.9709 41.1523C29.062 40.8431 29.1955 40.5745 29.3713 40.3467C29.5471 40.1156 29.7635 39.9365 30.0207 39.8096C30.2811 39.6826 30.5822 39.6191 30.924 39.6191C31.1617 39.6191 31.3798 39.6549 31.5783 39.7266C31.7769 39.7949 31.9478 39.904 32.091 40.0537C32.2375 40.2002 32.3498 40.3923 32.4279 40.6299C32.5061 40.8643 32.5451 41.1458 32.5451 41.4746V45H31.2561V41.6064C31.2561 41.359 31.2202 41.1654 31.1486 41.0254C31.0803 40.8854 30.981 40.7878 30.8508 40.7324C30.7206 40.6738 30.5643 40.6445 30.382 40.6445C30.1802 40.6445 30.0061 40.6852 29.8596 40.7666C29.7163 40.8447 29.5975 40.9538 29.5031 41.0938C29.412 41.2337 29.3436 41.3949 29.298 41.5771C29.2557 41.7594 29.2346 41.9564 29.2346 42.168ZM32.4475 41.9287L31.9152 42.0264C31.9185 41.6943 31.9641 41.3835 32.052 41.0938C32.1398 40.8008 32.2684 40.5452 32.4377 40.3271C32.6102 40.1058 32.8234 39.9333 33.0773 39.8096C33.3345 39.6826 33.6307 39.6191 33.966 39.6191C34.2264 39.6191 34.4608 39.6566 34.6691 39.7314C34.8807 39.8031 35.0614 39.9186 35.2111 40.0781C35.3609 40.2344 35.4748 40.4378 35.5529 40.6885C35.6343 40.9391 35.675 41.2451 35.675 41.6064V45H34.3762V41.6016C34.3762 41.3444 34.3404 41.1475 34.2687 41.0107C34.2004 40.874 34.1011 40.7796 33.9709 40.7275C33.8407 40.6722 33.6877 40.6445 33.5119 40.6445C33.3329 40.6445 33.1766 40.6787 33.0432 40.7471C32.913 40.8122 32.8023 40.9033 32.7111 41.0205C32.6232 41.1377 32.5565 41.2744 32.5109 41.4307C32.4686 41.5837 32.4475 41.7497 32.4475 41.9287ZM39.6153 45.0977C39.2149 45.0977 38.8552 45.0326 38.5362 44.9023C38.2172 44.7721 37.9454 44.5915 37.7207 44.3604C37.4994 44.126 37.3285 43.8542 37.208 43.5449C37.0909 43.2324 37.0323 42.8971 37.0323 42.5391V42.3438C37.0323 41.9368 37.0909 41.5674 37.208 41.2354C37.3252 40.9001 37.4912 40.612 37.7061 40.3711C37.9209 40.1302 38.1781 39.9447 38.4776 39.8145C38.7771 39.6842 39.1075 39.6191 39.4688 39.6191C39.8431 39.6191 40.1735 39.6826 40.46 39.8096C40.7465 39.9333 40.9857 40.109 41.1778 40.3369C41.3698 40.5648 41.5147 40.8382 41.6123 41.1572C41.71 41.473 41.7588 41.8229 41.7588 42.207V42.749H37.6182V41.8604H40.4893V41.7627C40.4828 41.5576 40.4437 41.3704 40.3721 41.2012C40.3005 41.0286 40.1898 40.8919 40.0401 40.791C39.8903 40.6868 39.6967 40.6348 39.459 40.6348C39.267 40.6348 39.0993 40.6771 38.9561 40.7617C38.8161 40.8431 38.6989 40.9603 38.6045 41.1133C38.5134 41.263 38.445 41.4421 38.3995 41.6504C38.3539 41.8587 38.3311 42.0898 38.3311 42.3438V42.5391C38.3311 42.7604 38.3604 42.9655 38.419 43.1543C38.4808 43.3431 38.5704 43.5075 38.6875 43.6475C38.808 43.7842 38.9512 43.8916 39.1172 43.9697C39.2865 44.0446 39.4786 44.082 39.6934 44.082C39.9636 44.082 40.2077 44.0299 40.4258 43.9258C40.6472 43.8184 40.8392 43.6605 41.002 43.4521L41.6514 44.126C41.5407 44.2887 41.391 44.445 41.2022 44.5947C41.0166 44.7445 40.792 44.8665 40.5284 44.9609C40.2647 45.0521 39.9603 45.0977 39.6153 45.0977ZM44.2977 40.8447V45H43.0087V39.7168H44.2196L44.2977 40.8447ZM44.0927 42.168H43.7118C43.7151 41.7839 43.7671 41.4355 43.868 41.123C43.969 40.8105 44.1106 40.542 44.2929 40.3174C44.4784 40.0928 44.6981 39.9202 44.952 39.7998C45.2059 39.6794 45.4891 39.6191 45.8016 39.6191C46.0555 39.6191 46.285 39.6549 46.4901 39.7266C46.6952 39.7982 46.871 39.9121 47.0175 40.0684C47.1672 40.2246 47.2811 40.4297 47.3593 40.6836C47.4406 40.9342 47.4813 41.2435 47.4813 41.6113V45H46.1825V41.6016C46.1825 41.3607 46.1467 41.1702 46.0751 41.0303C46.0067 40.8903 45.9058 40.791 45.7723 40.7324C45.6421 40.6738 45.481 40.6445 45.2889 40.6445C45.0904 40.6445 44.9162 40.6852 44.7665 40.7666C44.62 40.8447 44.4963 40.9538 44.3954 41.0938C44.2977 41.2337 44.2229 41.3949 44.1708 41.5771C44.1187 41.7594 44.0927 41.9564 44.0927 42.168ZM51.529 39.7168V40.6445H48.5017V39.7168H51.529ZM49.3122 38.418H50.6062V43.4766C50.6062 43.6328 50.6273 43.7533 50.6696 43.8379C50.712 43.9225 50.7754 43.9795 50.8601 44.0088C50.9447 44.0381 51.0456 44.0527 51.1628 44.0527C51.2474 44.0527 51.3256 44.0479 51.3972 44.0381C51.4688 44.0283 51.529 44.0186 51.5779 44.0088L51.5827 44.9756C51.4753 45.0114 51.3532 45.0407 51.2165 45.0635C51.0831 45.0863 50.9317 45.0977 50.7624 45.0977C50.4727 45.0977 50.2188 45.0488 50.0007 44.9512C49.7826 44.8503 49.6133 44.6891 49.4929 44.4678C49.3724 44.2432 49.3122 43.9469 49.3122 43.5791V38.418ZM55.7037 43.5547C55.7037 43.444 55.6744 43.3447 55.6158 43.2568C55.5572 43.1689 55.4465 43.0892 55.2837 43.0176C55.1242 42.9427 54.8899 42.8727 54.5806 42.8076C54.3072 42.749 54.0549 42.6758 53.8238 42.5879C53.5927 42.5 53.3941 42.3942 53.2281 42.2705C53.0621 42.1436 52.9319 41.9954 52.8375 41.8262C52.7463 41.6536 52.7007 41.4551 52.7007 41.2305C52.7007 41.0124 52.7479 40.8073 52.8423 40.6152C52.9367 40.4199 53.0735 40.249 53.2525 40.1025C53.4315 39.9528 53.6496 39.8356 53.9068 39.751C54.164 39.6631 54.4537 39.6191 54.7759 39.6191C55.2252 39.6191 55.6109 39.6924 55.9332 39.8389C56.2587 39.9854 56.5077 40.1872 56.6802 40.4443C56.8528 40.6982 56.939 40.9847 56.939 41.3037H55.65C55.65 41.1637 55.6174 41.0368 55.5523 40.9229C55.4905 40.8089 55.3944 40.7178 55.2642 40.6494C55.134 40.5778 54.9696 40.542 54.7711 40.542C54.592 40.542 54.4406 40.5713 54.317 40.6299C54.1965 40.6885 54.1054 40.765 54.0435 40.8594C53.9817 40.9538 53.9507 41.0579 53.9507 41.1719C53.9507 41.2565 53.967 41.333 53.9996 41.4014C54.0354 41.4665 54.0923 41.5267 54.1705 41.582C54.2486 41.6374 54.3544 41.6878 54.4879 41.7334C54.6246 41.779 54.7922 41.8229 54.9908 41.8652C55.3847 41.9434 55.7281 42.0475 56.0211 42.1777C56.3173 42.3047 56.5484 42.474 56.7144 42.6855C56.8804 42.8971 56.9634 43.1673 56.9634 43.4961C56.9634 43.7305 56.913 43.9453 56.8121 44.1406C56.7112 44.3327 56.5647 44.5003 56.3726 44.6436C56.1806 44.7868 55.9511 44.8991 55.6841 44.9805C55.4172 45.0586 55.1161 45.0977 54.7808 45.0977C54.2958 45.0977 53.8856 45.0114 53.5504 44.8389C53.2151 44.6631 52.9612 44.4417 52.7886 44.1748C52.6161 43.9046 52.5298 43.6247 52.5298 43.335H53.7652C53.775 43.54 53.8303 43.7044 53.9312 43.8281C54.0321 43.9518 54.1591 44.0413 54.3121 44.0967C54.4683 44.1488 54.6327 44.1748 54.8052 44.1748C55.0005 44.1748 55.1649 44.1488 55.2984 44.0967C55.4319 44.0413 55.5328 43.9681 55.6011 43.877C55.6695 43.7826 55.7037 43.6751 55.7037 43.5547Z" />
<mask id="mask0_13034_6062" style="mask-type:alpha" maskUnits="userSpaceOnUse" x="20" y="5" width="20" height="20">
<rect x="20" y="5" width="20" height="20" fill="#D9D9D9"/>
</mask>
</svg>
