<svg width="60" height="50" viewBox="0 0 60 50" fill="none" xmlns="http://www.w3.org/2000/svg">
<path d="M11.249 31.1797V39H10.2124V31.1797H11.249Z" />
<path d="M13.9775 34.4292V39H12.9839V33.1885H13.9238L13.9775 34.4292ZM13.7412 35.874L13.3276 35.8579C13.3312 35.4604 13.3903 35.0934 13.5049 34.7568C13.6195 34.4167 13.7806 34.1213 13.9883 33.8706C14.196 33.62 14.443 33.4266 14.7295 33.2905C15.0195 33.1509 15.34 33.0811 15.6909 33.0811C15.9774 33.0811 16.2352 33.1204 16.4644 33.1992C16.6935 33.2744 16.8887 33.3962 17.0498 33.5645C17.2145 33.7327 17.3398 33.9512 17.4258 34.2197C17.5117 34.4847 17.5547 34.8088 17.5547 35.1919V39H16.5557V35.1812C16.5557 34.8768 16.5109 34.6333 16.4214 34.4507C16.3319 34.2645 16.2012 34.1302 16.0293 34.0479C15.8574 33.9619 15.6462 33.9189 15.3955 33.9189C15.1484 33.9189 14.9229 33.9709 14.7188 34.0747C14.5182 34.1785 14.3446 34.3218 14.1978 34.5044C14.0545 34.687 13.9417 34.8965 13.8594 35.1328C13.7806 35.3656 13.7412 35.6126 13.7412 35.874Z" />
<path d="M20.8311 38.103L22.4209 33.1885H23.436L21.3467 39H20.6807L20.8311 38.103ZM19.5044 33.1885L21.1426 38.1299L21.2554 39H20.5894L18.4839 33.1885H19.5044Z" />
<path d="M24.043 36.1587V36.0352C24.043 35.6162 24.1038 35.2277 24.2256 34.8696C24.3473 34.508 24.5228 34.1947 24.752 33.9297C24.9811 33.6611 25.2586 33.4535 25.5845 33.3066C25.9103 33.1562 26.2756 33.0811 26.6802 33.0811C27.0884 33.0811 27.4554 33.1562 27.7812 33.3066C28.1107 33.4535 28.39 33.6611 28.6191 33.9297C28.8519 34.1947 29.0291 34.508 29.1509 34.8696C29.2726 35.2277 29.3335 35.6162 29.3335 36.0352V36.1587C29.3335 36.5776 29.2726 36.9661 29.1509 37.3242C29.0291 37.6823 28.8519 37.9956 28.6191 38.2642C28.39 38.5291 28.1125 38.7368 27.7866 38.8872C27.4644 39.034 27.0991 39.1074 26.6909 39.1074C26.2827 39.1074 25.9157 39.034 25.5898 38.8872C25.264 38.7368 24.9847 38.5291 24.752 38.2642C24.5228 37.9956 24.3473 37.6823 24.2256 37.3242C24.1038 36.9661 24.043 36.5776 24.043 36.1587ZM25.0366 36.0352V36.1587C25.0366 36.4487 25.0706 36.7227 25.1387 36.9805C25.2067 37.2347 25.3088 37.4603 25.4448 37.6572C25.5845 37.8542 25.7581 38.0099 25.9658 38.1245C26.1735 38.2355 26.4152 38.291 26.6909 38.291C26.9631 38.291 27.2012 38.2355 27.4053 38.1245C27.613 38.0099 27.7848 37.8542 27.9209 37.6572C28.057 37.4603 28.159 37.2347 28.2271 36.9805C28.2987 36.7227 28.3345 36.4487 28.3345 36.1587V36.0352C28.3345 35.7487 28.2987 35.4784 28.2271 35.2241C28.159 34.9663 28.0552 34.7389 27.9155 34.542C27.7795 34.3415 27.6076 34.1839 27.3999 34.0693C27.1958 33.9548 26.9559 33.8975 26.6802 33.8975C26.408 33.8975 26.1681 33.9548 25.9604 34.0693C25.7563 34.1839 25.5845 34.3415 25.4448 34.542C25.3088 34.7389 25.2067 34.9663 25.1387 35.2241C25.0706 35.4784 25.0366 35.7487 25.0366 36.0352Z" />
<path d="M31.6592 33.1885V39H30.6602V33.1885H31.6592ZM30.585 31.647C30.585 31.4858 30.6333 31.3498 30.73 31.2388C30.8302 31.1278 30.9771 31.0723 31.1704 31.0723C31.3602 31.0723 31.5052 31.1278 31.6055 31.2388C31.7093 31.3498 31.7612 31.4858 31.7612 31.647C31.7612 31.8009 31.7093 31.9334 31.6055 32.0444C31.5052 32.1519 31.3602 32.2056 31.1704 32.2056C30.9771 32.2056 30.8302 32.1519 30.73 32.0444C30.6333 31.9334 30.585 31.8009 30.585 31.647Z" />
<path d="M35.5801 38.291C35.8164 38.291 36.0348 38.2427 36.2354 38.146C36.4359 38.0493 36.6006 37.9168 36.7295 37.7485C36.8584 37.5767 36.9318 37.3815 36.9497 37.1631H37.895C37.8771 37.5068 37.7607 37.8273 37.5459 38.1245C37.3346 38.4181 37.0571 38.6562 36.7134 38.8389C36.3696 39.0179 35.9919 39.1074 35.5801 39.1074C35.1432 39.1074 34.7619 39.0304 34.436 38.8765C34.1138 38.7225 33.8452 38.5112 33.6304 38.2427C33.4191 37.9741 33.2598 37.6662 33.1523 37.3188C33.0485 36.9679 32.9966 36.5973 32.9966 36.207V35.9814C32.9966 35.5911 33.0485 35.2223 33.1523 34.875C33.2598 34.5241 33.4191 34.2144 33.6304 33.9458C33.8452 33.6772 34.1138 33.466 34.436 33.312C34.7619 33.158 35.1432 33.0811 35.5801 33.0811C36.0348 33.0811 36.4323 33.1742 36.7725 33.3604C37.1126 33.543 37.3794 33.7936 37.5728 34.1123C37.7697 34.4274 37.8771 34.7855 37.895 35.1865H36.9497C36.9318 34.9466 36.8638 34.73 36.7456 34.5366C36.631 34.3433 36.4735 34.1893 36.2729 34.0747C36.076 33.9565 35.8451 33.8975 35.5801 33.8975C35.2757 33.8975 35.0197 33.9583 34.812 34.0801C34.6079 34.1982 34.445 34.3594 34.3232 34.5635C34.2051 34.764 34.1191 34.9878 34.0654 35.2349C34.0153 35.4784 33.9902 35.7272 33.9902 35.9814V36.207C33.9902 36.4613 34.0153 36.7119 34.0654 36.959C34.1156 37.2061 34.1997 37.4299 34.3179 37.6304C34.4396 37.8309 34.6025 37.992 34.8066 38.1138C35.0143 38.2319 35.2721 38.291 35.5801 38.291Z" />
<path d="M41.4238 39.1074C41.0192 39.1074 40.6522 39.0394 40.3228 38.9033C39.9969 38.7637 39.7158 38.5685 39.4795 38.3179C39.2467 38.0672 39.0677 37.77 38.9424 37.4263C38.8171 37.0825 38.7544 36.7065 38.7544 36.2983V36.0728C38.7544 35.6001 38.8242 35.1794 38.9639 34.8105C39.1035 34.4382 39.2933 34.123 39.5332 33.8652C39.7731 33.6074 40.0452 33.4123 40.3496 33.2798C40.654 33.1473 40.9691 33.0811 41.2949 33.0811C41.7103 33.0811 42.0684 33.1527 42.3691 33.2959C42.6735 33.4391 42.9224 33.6396 43.1157 33.8975C43.3091 34.1517 43.4523 34.4525 43.5454 34.7998C43.6385 35.1436 43.6851 35.5195 43.6851 35.9277V36.3735H39.3452V35.5625H42.6914V35.4873C42.6771 35.2295 42.6234 34.9788 42.5303 34.7354C42.4408 34.4919 42.2975 34.2913 42.1006 34.1338C41.9036 33.9762 41.6351 33.8975 41.2949 33.8975C41.0693 33.8975 40.8617 33.9458 40.6719 34.0425C40.4821 34.1356 40.3192 34.2752 40.1831 34.4614C40.047 34.6476 39.9414 34.875 39.8662 35.1436C39.791 35.4121 39.7534 35.7218 39.7534 36.0728V36.2983C39.7534 36.5741 39.791 36.8337 39.8662 37.0771C39.945 37.3171 40.0578 37.5283 40.2046 37.7109C40.355 37.8936 40.5358 38.0368 40.7471 38.1406C40.9619 38.2445 41.2054 38.2964 41.4775 38.2964C41.8285 38.2964 42.1257 38.2248 42.3691 38.0815C42.6126 37.9383 42.8257 37.7467 43.0083 37.5068L43.6099 37.9849C43.4845 38.1746 43.3252 38.3555 43.1318 38.5273C42.9385 38.6992 42.7004 38.8389 42.4175 38.9463C42.1382 39.0537 41.807 39.1074 41.4238 39.1074Z" />
<path d="M48.229 37.4585C48.229 37.3153 48.1968 37.1828 48.1323 37.061C48.0715 36.9357 47.9443 36.8229 47.751 36.7227C47.5612 36.6188 47.2747 36.5293 46.8916 36.4541C46.5693 36.3861 46.2775 36.3055 46.0161 36.2124C45.7583 36.1193 45.5381 36.0065 45.3555 35.874C45.1764 35.7415 45.0386 35.5858 44.9419 35.4067C44.8452 35.2277 44.7969 35.0182 44.7969 34.7783C44.7969 34.5492 44.847 34.3325 44.9473 34.1284C45.0511 33.9243 45.1961 33.7435 45.3823 33.5859C45.5721 33.4284 45.7995 33.3049 46.0645 33.2153C46.3294 33.1258 46.6248 33.0811 46.9507 33.0811C47.4162 33.0811 47.8136 33.1634 48.1431 33.3281C48.4725 33.4928 48.7249 33.7131 48.9004 33.9888C49.0758 34.2609 49.1636 34.5635 49.1636 34.8965H48.1699C48.1699 34.7354 48.1216 34.5796 48.0249 34.4292C47.9318 34.2752 47.7939 34.1481 47.6113 34.0479C47.4323 33.9476 47.2121 33.8975 46.9507 33.8975C46.675 33.8975 46.4512 33.9404 46.2793 34.0264C46.111 34.1087 45.9875 34.2144 45.9087 34.3433C45.8335 34.4722 45.7959 34.6082 45.7959 34.7515C45.7959 34.8589 45.8138 34.9556 45.8496 35.0415C45.889 35.1239 45.957 35.2008 46.0537 35.2725C46.1504 35.3405 46.2865 35.4049 46.4619 35.4658C46.6374 35.5267 46.8612 35.5876 47.1333 35.6484C47.6095 35.7559 48.0016 35.8848 48.3096 36.0352C48.6175 36.1855 48.8467 36.37 48.9971 36.5884C49.1475 36.8068 49.2227 37.0718 49.2227 37.3833C49.2227 37.6375 49.1689 37.8703 49.0615 38.0815C48.9577 38.2928 48.8055 38.4754 48.605 38.6294C48.408 38.7798 48.1717 38.8979 47.896 38.9839C47.6239 39.0662 47.3177 39.1074 46.9775 39.1074C46.4655 39.1074 46.0322 39.0161 45.6777 38.8335C45.3232 38.6509 45.0547 38.4146 44.8721 38.1245C44.6895 37.8345 44.5981 37.5283 44.5981 37.2061H45.5972C45.6115 37.4782 45.6903 37.6948 45.8335 37.856C45.9767 38.0135 46.1522 38.1263 46.3599 38.1943C46.5675 38.2588 46.7734 38.291 46.9775 38.291C47.2497 38.291 47.4771 38.2552 47.6597 38.1836C47.8459 38.112 47.9873 38.0135 48.084 37.8882C48.1807 37.7629 48.229 37.6196 48.229 37.4585Z" />
<mask id="mask0_13034_6071" style="mask-type:alpha" maskUnits="userSpaceOnUse" x="20" y="5" width="20" height="20">
<rect x="20" y="5" width="20" height="20" fill="#D9D9D9"/>
</mask>
<g mask="url(#mask0_13034_6071)">
<path d="M25 23.3337C24.3056 23.3337 23.7153 23.0906 23.2292 22.6045C22.7431 22.1184 22.5 21.5281 22.5 20.8337V18.3337H25V6.66699L26.25 7.91699L27.5 6.66699L28.75 7.91699L30 6.66699L31.25 7.91699L32.5 6.66699L33.75 7.91699L35 6.66699L36.25 7.91699L37.5 6.66699V20.8337C37.5 21.5281 37.2569 22.1184 36.7708 22.6045C36.2847 23.0906 35.6944 23.3337 35 23.3337H25ZM35 21.667C35.2361 21.667 35.4339 21.587 35.5933 21.427C35.7533 21.2675 35.8333 21.0698 35.8333 20.8337V9.16699H26.6667V18.3337H34.1667V20.8337C34.1667 21.0698 34.2467 21.2675 34.4067 21.427C34.5661 21.587 34.7639 21.667 35 21.667ZM27.5 12.5003V10.8337H32.5V12.5003H27.5ZM27.5 15.0003V13.3337H32.5V15.0003H27.5ZM34.1667 12.5003C33.9306 12.5003 33.7328 12.4203 33.5733 12.2603C33.4133 12.1009 33.3333 11.9031 33.3333 11.667C33.3333 11.4309 33.4133 11.2328 33.5733 11.0728C33.7328 10.9134 33.9306 10.8337 34.1667 10.8337C34.4028 10.8337 34.6006 10.9134 34.76 11.0728C34.92 11.2328 35 11.4309 35 11.667C35 11.9031 34.92 12.1009 34.76 12.2603C34.6006 12.4203 34.4028 12.5003 34.1667 12.5003ZM34.1667 15.0003C33.9306 15.0003 33.7328 14.9203 33.5733 14.7603C33.4133 14.6009 33.3333 14.4031 33.3333 14.167C33.3333 13.9309 33.4133 13.7328 33.5733 13.5728C33.7328 13.4134 33.9306 13.3337 34.1667 13.3337C34.4028 13.3337 34.6006 13.4134 34.76 13.5728C34.92 13.7328 35 13.9309 35 14.167C35 14.4031 34.92 14.6009 34.76 14.7603C34.6006 14.9203 34.4028 15.0003 34.1667 15.0003ZM25 21.667H32.5V20.0003H24.1667V20.8337C24.1667 21.0698 24.2464 21.2675 24.4058 21.427C24.5658 21.587 24.7639 21.667 25 21.667Z" />
</g>
</svg>
