<svg width="60" height="50" viewBox="0 0 60 50" fill="none" xmlns="http://www.w3.org/2000/svg">
<path d="M22.5884 36.7173V31.1797H23.6196V36.7173C23.6196 37.2329 23.514 37.668 23.3027 38.0225C23.0915 38.377 22.7996 38.6473 22.4272 38.8335C22.0584 39.0161 21.6341 39.1074 21.1543 39.1074C20.6745 39.1074 20.2484 39.0251 19.876 38.8604C19.5036 38.6956 19.2118 38.445 19.0005 38.1084C18.7892 37.7718 18.6836 37.3475 18.6836 36.8354H19.7202C19.7202 37.1649 19.7811 37.4352 19.9028 37.6465C20.0246 37.8577 20.1929 38.0135 20.4077 38.1138C20.6261 38.214 20.875 38.2642 21.1543 38.2642C21.4264 38.2642 21.6699 38.2069 21.8848 38.0923C22.1032 37.9741 22.2751 37.8005 22.4004 37.5713C22.5257 37.3385 22.5884 37.0539 22.5884 36.7173Z" />
<path d="M24.9624 36.1587V36.0352C24.9624 35.6162 25.0233 35.2277 25.145 34.8696C25.2668 34.508 25.4422 34.1947 25.6714 33.9297C25.9006 33.6611 26.1781 33.4535 26.5039 33.3066C26.8298 33.1562 27.195 33.0811 27.5996 33.0811C28.0078 33.0811 28.3748 33.1562 28.7007 33.3066C29.0301 33.4535 29.3094 33.6611 29.5386 33.9297C29.7713 34.1947 29.9486 34.508 30.0703 34.8696C30.1921 35.2277 30.2529 35.6162 30.2529 36.0352V36.1587C30.2529 36.5776 30.1921 36.9661 30.0703 37.3242C29.9486 37.6823 29.7713 37.9956 29.5386 38.2642C29.3094 38.5291 29.0319 38.7368 28.7061 38.8872C28.3838 39.034 28.0186 39.1074 27.6104 39.1074C27.2021 39.1074 26.8351 39.034 26.5093 38.8872C26.1834 38.7368 25.9041 38.5291 25.6714 38.2642C25.4422 37.9956 25.2668 37.6823 25.145 37.3242C25.0233 36.9661 24.9624 36.5776 24.9624 36.1587ZM25.9561 36.0352V36.1587C25.9561 36.4487 25.9901 36.7227 26.0581 36.9805C26.1261 37.2347 26.2282 37.4603 26.3643 37.6572C26.5039 37.8542 26.6776 38.0099 26.8853 38.1245C27.0929 38.2355 27.3346 38.291 27.6104 38.291C27.8825 38.291 28.1206 38.2355 28.3247 38.1245C28.5324 38.0099 28.7043 37.8542 28.8403 37.6572C28.9764 37.4603 29.0785 37.2347 29.1465 36.9805C29.2181 36.7227 29.2539 36.4487 29.2539 36.1587V36.0352C29.2539 35.7487 29.2181 35.4784 29.1465 35.2241C29.0785 34.9663 28.9746 34.7389 28.835 34.542C28.6989 34.3415 28.527 34.1839 28.3193 34.0693C28.1152 33.9548 27.8753 33.8975 27.5996 33.8975C27.3275 33.8975 27.0876 33.9548 26.8799 34.0693C26.6758 34.1839 26.5039 34.3415 26.3643 34.542C26.2282 34.7389 26.1261 34.9663 26.0581 35.2241C25.9901 35.4784 25.9561 35.7487 25.9561 36.0352Z" />
<path d="M31.4937 30.75H32.4927V37.8721L32.4067 39H31.4937V30.75ZM36.4189 36.0459V36.1587C36.4189 36.5812 36.3688 36.9733 36.2686 37.335C36.1683 37.693 36.0215 38.0046 35.8281 38.2695C35.6348 38.5345 35.3984 38.7404 35.1191 38.8872C34.8398 39.034 34.5194 39.1074 34.1577 39.1074C33.7889 39.1074 33.4648 39.0448 33.1855 38.9194C32.9098 38.7905 32.6771 38.6061 32.4873 38.3662C32.2975 38.1263 32.1453 37.8363 32.0308 37.4961C31.9198 37.1559 31.8428 36.7728 31.7998 36.3467V35.8525C31.8428 35.4229 31.9198 35.0379 32.0308 34.6978C32.1453 34.3576 32.2975 34.0675 32.4873 33.8276C32.6771 33.5841 32.9098 33.3997 33.1855 33.2744C33.4613 33.1455 33.7817 33.0811 34.147 33.0811C34.5122 33.0811 34.8363 33.1527 35.1191 33.2959C35.402 33.4355 35.6383 33.6361 35.8281 33.8975C36.0215 34.1589 36.1683 34.4722 36.2686 34.8374C36.3688 35.1991 36.4189 35.6019 36.4189 36.0459ZM35.4199 36.1587V36.0459C35.4199 35.7559 35.3931 35.4837 35.3394 35.2295C35.2856 34.9717 35.1997 34.7461 35.0815 34.5527C34.9634 34.3558 34.8076 34.2018 34.6143 34.0908C34.4209 33.9762 34.1828 33.9189 33.8999 33.9189C33.6493 33.9189 33.4308 33.9619 33.2446 34.0479C33.062 34.1338 32.9062 34.2502 32.7773 34.397C32.6484 34.5402 32.5428 34.7049 32.4604 34.8911C32.3817 35.0737 32.3226 35.2635 32.2832 35.4604V36.7549C32.3405 37.0055 32.4336 37.2472 32.5625 37.48C32.695 37.7091 32.8704 37.8971 33.0889 38.0439C33.3109 38.1908 33.5848 38.2642 33.9106 38.2642C34.1792 38.2642 34.4084 38.2104 34.5981 38.103C34.7915 37.992 34.9473 37.8398 35.0654 37.6465C35.1872 37.4531 35.2767 37.2293 35.334 36.9751C35.3913 36.7209 35.4199 36.4487 35.4199 36.1587Z" />
<path d="M41.0596 37.4585C41.0596 37.3153 41.0273 37.1828 40.9629 37.061C40.902 36.9357 40.7749 36.8229 40.5815 36.7227C40.3918 36.6188 40.1053 36.5293 39.7222 36.4541C39.3999 36.3861 39.1081 36.3055 38.8467 36.2124C38.5889 36.1193 38.3687 36.0065 38.186 35.874C38.007 35.7415 37.8691 35.5858 37.7725 35.4067C37.6758 35.2277 37.6274 35.0182 37.6274 34.7783C37.6274 34.5492 37.6776 34.3325 37.7778 34.1284C37.8817 33.9243 38.0267 33.7435 38.2129 33.5859C38.4027 33.4284 38.63 33.3049 38.895 33.2153C39.16 33.1258 39.4554 33.0811 39.7812 33.0811C40.2467 33.0811 40.6442 33.1634 40.9736 33.3281C41.3031 33.4928 41.5555 33.7131 41.731 33.9888C41.9064 34.2609 41.9941 34.5635 41.9941 34.8965H41.0005C41.0005 34.7354 40.9521 34.5796 40.8555 34.4292C40.7624 34.2752 40.6245 34.1481 40.4419 34.0479C40.2629 33.9476 40.0426 33.8975 39.7812 33.8975C39.5055 33.8975 39.2817 33.9404 39.1099 34.0264C38.9416 34.1087 38.818 34.2144 38.7393 34.3433C38.6641 34.4722 38.6265 34.6082 38.6265 34.7515C38.6265 34.8589 38.6444 34.9556 38.6802 35.0415C38.7196 35.1239 38.7876 35.2008 38.8843 35.2725C38.981 35.3405 39.117 35.4049 39.2925 35.4658C39.4679 35.5267 39.6917 35.5876 39.9639 35.6484C40.4401 35.7559 40.8322 35.8848 41.1401 36.0352C41.4481 36.1855 41.6772 36.37 41.8276 36.5884C41.978 36.8068 42.0532 37.0718 42.0532 37.3833C42.0532 37.6375 41.9995 37.8703 41.8921 38.0815C41.7882 38.2928 41.6361 38.4754 41.4355 38.6294C41.2386 38.7798 41.0023 38.8979 40.7266 38.9839C40.4544 39.0662 40.1483 39.1074 39.8081 39.1074C39.2961 39.1074 38.8628 39.0161 38.5083 38.8335C38.1538 38.6509 37.8853 38.4146 37.7026 38.1245C37.52 37.8345 37.4287 37.5283 37.4287 37.2061H38.4277C38.4421 37.4782 38.5208 37.6948 38.6641 37.856C38.8073 38.0135 38.9827 38.1263 39.1904 38.1943C39.3981 38.2588 39.604 38.291 39.8081 38.291C40.0802 38.291 40.3076 38.2552 40.4902 38.1836C40.6764 38.112 40.8179 38.0135 40.9146 37.8882C41.0112 37.7629 41.0596 37.6196 41.0596 37.4585Z" />
<mask id="mask0_13034_6079" style="mask-type:alpha" maskUnits="userSpaceOnUse" x="20" y="5" width="20" height="20">
<rect x="20" y="5" width="20" height="20" fill="#D9D9D9"/>
</mask>
<g mask="url(#mask0_13034_6079)">
<path d="M35.7499 22.5003L31.1874 17.9378L32.9374 16.1878L37.4999 20.7503L35.7499 22.5003ZM24.2499 22.5003L22.4999 20.7503L28.2499 15.0003L26.8333 13.5837L26.2499 14.167L25.1874 13.1045V14.8128L24.6041 15.3962L22.0833 12.8753L22.6666 12.292H24.3749L23.3333 11.2503L26.2916 8.29199C26.5694 8.01421 26.868 7.81283 27.1874 7.68783C27.5069 7.56283 27.8333 7.50033 28.1666 7.50033C28.4999 7.50033 28.8263 7.56283 29.1458 7.68783C29.4652 7.81283 29.7638 8.01421 30.0416 8.29199L28.1249 10.2087L29.1666 11.2503L28.5833 11.8337L29.9999 13.2503L31.8749 11.3753C31.8194 11.2225 31.7744 11.0628 31.7399 10.8962C31.7049 10.7295 31.6874 10.5628 31.6874 10.3962C31.6874 9.57671 31.9688 8.8856 32.5316 8.32283C33.0938 7.7606 33.7846 7.47949 34.6041 7.47949C34.8124 7.47949 35.0105 7.50033 35.1983 7.54199C35.3855 7.58366 35.5763 7.64616 35.7708 7.72949L33.7083 9.79199L35.2083 11.292L37.2708 9.22949C37.368 9.42394 37.4341 9.61477 37.4691 9.80199C37.5035 9.98977 37.5208 10.1878 37.5208 10.3962C37.5208 11.2156 37.2396 11.9064 36.6774 12.4687C36.1146 13.0314 35.4235 13.3128 34.6041 13.3128C34.4374 13.3128 34.2708 13.2989 34.1041 13.2712C33.9374 13.2434 33.7777 13.1948 33.6249 13.1253L24.2499 22.5003Z" />
</g>
</svg>
