<svg width="21" height="20" viewBox="0 0 21 20" fill="none" xmlns="http://www.w3.org/2000/svg">
<path fill-rule="evenodd" clip-rule="evenodd" d="M7.75149 4.6275C7.89232 4.345 8.18149 4.16667 8.49732 4.16667H13.1032C13.419 4.16667 13.7073 4.345 13.8482 4.6275L16.1182 9.16667H14.1332C13.6732 9.16667 13.2998 9.54 13.2998 10V11.6667C13.2998 12.1275 12.9265 12.5 12.4665 12.5H9.13315C8.67315 12.5 8.29982 12.1275 8.29982 11.6667V10C8.29982 9.54 7.92649 9.16667 7.46649 9.16667H5.48149L7.75149 4.6275ZM18.124 9.45167L15.339 3.88167C14.9132 3.03 14.0565 2.5 13.1032 2.5H8.49649C7.54315 2.5 6.68732 3.03 6.26065 3.88167L3.47565 9.45167C3.36065 9.68167 3.29982 9.94 3.29982 10.1975V15C3.29982 16.3792 4.42149 17.5 5.79982 17.5H15.7998C17.179 17.5 18.2998 16.3792 18.2998 15V10.1975C18.2998 9.94 18.239 9.68167 18.124 9.45167Z" fill="#29696A"/>
<mask id="mask0_9688_1770" style="mask-type:alpha" maskUnits="userSpaceOnUse" x="3" y="2" width="16" height="16">
<path fill-rule="evenodd" clip-rule="evenodd" d="M7.75149 4.6275C7.89232 4.345 8.18149 4.16667 8.49732 4.16667H13.1032C13.419 4.16667 13.7073 4.345 13.8482 4.6275L16.1182 9.16667H14.1332C13.6732 9.16667 13.2998 9.54 13.2998 10V11.6667C13.2998 12.1275 12.9265 12.5 12.4665 12.5H9.13315C8.67315 12.5 8.29982 12.1275 8.29982 11.6667V10C8.29982 9.54 7.92649 9.16667 7.46649 9.16667H5.48149L7.75149 4.6275ZM18.124 9.45167L15.339 3.88167C14.9132 3.03 14.0565 2.5 13.1032 2.5H8.49649C7.54315 2.5 6.68732 3.03 6.26065 3.88167L3.47565 9.45167C3.36065 9.68167 3.29982 9.94 3.29982 10.1975V15C3.29982 16.3792 4.42149 17.5 5.79982 17.5H15.7998C17.179 17.5 18.2998 16.3792 18.2998 15V10.1975C18.2998 9.94 18.239 9.68167 18.124 9.45167Z" fill="white"/>
</mask>
<g mask="url(#mask0_9688_1770)">
</g>
</svg>
