<svg width="60" height="50" viewBox="0 0 60 50" fill="none" xmlns="http://www.w3.org/2000/svg">
<mask id="mask0_15796_11259" style="mask-type:alpha" maskUnits="userSpaceOnUse" x="20" y="5" width="20" height="20">
<path d="M40 5H20V25H40V5Z" fill="#D9D9D9"/>
</mask>
<g mask="url(#mask0_15796_11259)">
<path d="M35 20C35.3472 20 35.6422 19.8783 35.885 19.635C36.1283 19.3922 36.25 19.0972 36.25 18.75C36.25 18.4028 36.1283 18.1078 35.885 17.865C35.6422 17.6217 35.3472 17.5 35 17.5C34.6528 17.5 34.3578 17.6217 34.115 17.865C33.8717 18.1078 33.75 18.4028 33.75 18.75C33.75 19.0972 33.8717 19.3922 34.115 19.635C34.3578 19.8783 34.6528 20 35 20ZM35 22.5C35.4167 22.5 35.8056 22.4028 36.1667 22.2083C36.5278 22.0139 36.8264 21.7431 37.0625 21.3958C36.7431 21.2014 36.4097 21.0592 36.0625 20.9692C35.7153 20.8786 35.3611 20.8333 35 20.8333C34.6389 20.8333 34.2847 20.8786 33.9375 20.9692C33.5903 21.0592 33.2569 21.2014 32.9375 21.3958C33.1736 21.7431 33.4722 22.0139 33.8333 22.2083C34.1944 22.4028 34.5833 22.5 35 22.5ZM24.1667 22.5C23.7083 22.5 23.3158 22.3369 22.9892 22.0108C22.6631 21.6842 22.5 21.2917 22.5 20.8333V9.16667C22.5 8.70833 22.6631 8.31583 22.9892 7.98917C23.3158 7.66306 23.7083 7.5 24.1667 7.5H35.8333C36.2917 7.5 36.6842 7.66306 37.0108 7.98917C37.3369 8.31583 37.5 8.70833 37.5 9.16667V14.75C37.2361 14.625 36.9653 14.5172 36.6875 14.4267C36.4097 14.3367 36.125 14.2708 35.8333 14.2292V9.16667H24.1667V20.8333H29.2083C29.25 21.1389 29.3161 21.4306 29.4067 21.7083C29.4967 21.9861 29.6042 22.25 29.7292 22.5H24.1667ZM24.1667 20.8333V9.16667V14.2292V14.1667V20.8333ZM25.8333 19.1667H29.2292C29.2708 18.875 29.3367 18.5903 29.4267 18.3125C29.5172 18.0347 29.6181 17.7639 29.7292 17.5H25.8333V19.1667ZM25.8333 15.8333H30.9167C31.3611 15.4167 31.8575 15.0694 32.4058 14.7917C32.9547 14.5139 33.5417 14.3264 34.1667 14.2292V14.1667H25.8333V15.8333ZM25.8333 12.5H34.1667V10.8333H25.8333V12.5ZM35 24.1667C33.8472 24.1667 32.8647 23.7606 32.0525 22.9483C31.2397 22.1356 30.8333 21.1528 30.8333 20C30.8333 18.8472 31.2397 17.8644 32.0525 17.0517C32.8647 16.2394 33.8472 15.8333 35 15.8333C36.1528 15.8333 37.1356 16.2394 37.9483 17.0517C38.7606 17.8644 39.1667 18.8472 39.1667 20C39.1667 21.1528 38.7606 22.1356 37.9483 22.9483C37.1356 23.7606 36.1528 24.1667 35 24.1667Z" />
</g>
<path d="M8.3291 38.103L10.3164 39.6768L9.61816 40.3213L7.66309 38.769L8.3291 38.103ZM10.2896 34.8428V35.3369C10.2896 35.9242 10.2161 36.4505 10.0693 36.916C9.92253 37.3815 9.71126 37.7772 9.43555 38.103C9.15983 38.4289 8.82861 38.6777 8.44189 38.8496C8.05876 39.0215 7.62907 39.1074 7.15283 39.1074C6.69092 39.1074 6.2666 39.0215 5.87988 38.8496C5.49674 38.6777 5.16374 38.4289 4.88086 38.103C4.60156 37.7772 4.38493 37.3815 4.23096 36.916C4.07699 36.4505 4 35.9242 4 35.3369V34.8428C4 34.2555 4.0752 33.731 4.22559 33.269C4.37956 32.8035 4.59619 32.4079 4.87549 32.082C5.15479 31.7526 5.486 31.502 5.86914 31.3301C6.25586 31.1582 6.68018 31.0723 7.14209 31.0723C7.61833 31.0723 8.0498 31.1582 8.43652 31.3301C8.82324 31.502 9.15446 31.7526 9.43018 32.082C9.70589 32.4079 9.91715 32.8035 10.064 33.269C10.2144 33.731 10.2896 34.2555 10.2896 34.8428ZM9.26367 35.3369V34.832C9.26367 34.3665 9.21533 33.9548 9.11865 33.5967C9.02555 33.2386 8.8877 32.9378 8.70508 32.6943C8.52246 32.4508 8.30046 32.2664 8.03906 32.1411C7.77767 32.0158 7.47868 31.9531 7.14209 31.9531C6.8234 31.9531 6.53337 32.0158 6.27197 32.1411C6.01416 32.2664 5.79215 32.4508 5.60596 32.6943C5.41976 32.9378 5.27653 33.2386 5.17627 33.5967C5.07601 33.9548 5.02588 34.3665 5.02588 34.832V35.3369C5.02588 35.806 5.07601 36.2214 5.17627 36.583C5.27653 36.9411 5.41976 37.2437 5.60596 37.4907C5.79574 37.7342 6.02132 37.9186 6.28271 38.0439C6.54411 38.1693 6.83415 38.2319 7.15283 38.2319C7.48942 38.2319 7.78841 38.1693 8.0498 38.0439C8.3112 37.9186 8.53141 37.7342 8.71045 37.4907C8.89307 37.2437 9.03092 36.9411 9.12402 36.583C9.21712 36.2214 9.26367 35.806 9.26367 35.3369Z" />
<path d="M15.2954 37.6572V33.1885H16.2944V39H15.3438L15.2954 37.6572ZM15.4834 36.4326L15.897 36.4219C15.897 36.8086 15.8558 37.1667 15.7734 37.4961C15.6947 37.8219 15.5658 38.1048 15.3867 38.3447C15.2077 38.5846 14.9731 38.7726 14.6831 38.9087C14.3931 39.0412 14.0404 39.1074 13.625 39.1074C13.3421 39.1074 13.0825 39.0662 12.8462 38.9839C12.6134 38.9015 12.4129 38.7744 12.2446 38.6025C12.0763 38.4307 11.9456 38.2069 11.8525 37.9312C11.763 37.6554 11.7183 37.3242 11.7183 36.9375V33.1885H12.7119V36.9482C12.7119 37.2096 12.7406 37.4263 12.7979 37.5981C12.8587 37.7664 12.9393 37.9007 13.0396 38.001C13.1434 38.0977 13.258 38.1657 13.3833 38.2051C13.5122 38.2445 13.6447 38.2642 13.7808 38.2642C14.2033 38.2642 14.5381 38.1836 14.7852 38.0225C15.0322 37.8577 15.2095 37.6375 15.3169 37.3618C15.4279 37.0825 15.4834 36.7728 15.4834 36.4326Z" />
<path d="M17.5459 36.1587V36.0352C17.5459 35.6162 17.6068 35.2277 17.7285 34.8696C17.8503 34.508 18.0257 34.1947 18.2549 33.9297C18.484 33.6611 18.7616 33.4535 19.0874 33.3066C19.4132 33.1562 19.7785 33.0811 20.1831 33.0811C20.5913 33.0811 20.9583 33.1562 21.2842 33.3066C21.6136 33.4535 21.8929 33.6611 22.1221 33.9297C22.3548 34.1947 22.5321 34.508 22.6538 34.8696C22.7756 35.2277 22.8364 35.6162 22.8364 36.0352V36.1587C22.8364 36.5776 22.7756 36.9661 22.6538 37.3242C22.5321 37.6823 22.3548 37.9956 22.1221 38.2642C21.8929 38.5291 21.6154 38.7368 21.2896 38.8872C20.9673 39.034 20.6021 39.1074 20.1938 39.1074C19.7856 39.1074 19.4186 39.034 19.0928 38.8872C18.7669 38.7368 18.4876 38.5291 18.2549 38.2642C18.0257 37.9956 17.8503 37.6823 17.7285 37.3242C17.6068 36.9661 17.5459 36.5776 17.5459 36.1587ZM18.5396 36.0352V36.1587C18.5396 36.4487 18.5736 36.7227 18.6416 36.9805C18.7096 37.2347 18.8117 37.4603 18.9478 37.6572C19.0874 37.8542 19.2611 38.0099 19.4688 38.1245C19.6764 38.2355 19.9181 38.291 20.1938 38.291C20.466 38.291 20.7041 38.2355 20.9082 38.1245C21.1159 38.0099 21.2878 37.8542 21.4238 37.6572C21.5599 37.4603 21.6619 37.2347 21.73 36.9805C21.8016 36.7227 21.8374 36.4487 21.8374 36.1587V36.0352C21.8374 35.7487 21.8016 35.4784 21.73 35.2241C21.6619 34.9663 21.5581 34.7389 21.4185 34.542C21.2824 34.3415 21.1105 34.1839 20.9028 34.0693C20.6987 33.9548 20.4588 33.8975 20.1831 33.8975C19.911 33.8975 19.6711 33.9548 19.4634 34.0693C19.2593 34.1839 19.0874 34.3415 18.9478 34.542C18.8117 34.7389 18.7096 34.9663 18.6416 35.2241C18.5736 35.4784 18.5396 35.7487 18.5396 36.0352Z" />
<path d="M26.5156 33.1885V33.9512H23.3735V33.1885H26.5156ZM24.437 31.7759H25.4307V37.5605C25.4307 37.7575 25.4611 37.9061 25.522 38.0063C25.5828 38.1066 25.6616 38.1729 25.7583 38.2051C25.855 38.2373 25.9588 38.2534 26.0698 38.2534C26.1522 38.2534 26.2381 38.2463 26.3276 38.2319C26.4207 38.214 26.4906 38.1997 26.5371 38.189L26.5425 39C26.4637 39.0251 26.3599 39.0483 26.231 39.0698C26.1056 39.0949 25.9535 39.1074 25.7744 39.1074C25.5309 39.1074 25.3071 39.0591 25.103 38.9624C24.8989 38.8657 24.736 38.7046 24.6143 38.479C24.4961 38.2498 24.437 37.9419 24.437 37.5552V31.7759Z" />
<path d="M31.1079 38.0063V35.0146C31.1079 34.7855 31.0614 34.5868 30.9683 34.4185C30.8787 34.2466 30.7427 34.1141 30.5601 34.021C30.3774 33.9279 30.1519 33.8813 29.8833 33.8813C29.6326 33.8813 29.4124 33.9243 29.2227 34.0103C29.0365 34.0962 28.8896 34.209 28.7822 34.3486C28.6784 34.4883 28.6265 34.6387 28.6265 34.7998H27.6328C27.6328 34.5921 27.6865 34.3862 27.7939 34.1821C27.9014 33.978 28.0553 33.7936 28.2559 33.6289C28.46 33.4606 28.7035 33.3281 28.9863 33.2314C29.2728 33.1312 29.5915 33.0811 29.9424 33.0811C30.3649 33.0811 30.7373 33.1527 31.0596 33.2959C31.3854 33.4391 31.6396 33.6558 31.8223 33.9458C32.0085 34.2323 32.1016 34.5921 32.1016 35.0254V37.7324C32.1016 37.9258 32.1177 38.1317 32.1499 38.3501C32.1857 38.5685 32.2376 38.7565 32.3057 38.9141V39H31.269C31.2189 38.8854 31.1795 38.7332 31.1509 38.5435C31.1222 38.3501 31.1079 38.1711 31.1079 38.0063ZM31.2798 35.4766L31.2905 36.1748H30.2861C30.0033 36.1748 29.7508 36.1981 29.5288 36.2446C29.3068 36.2876 29.1206 36.3538 28.9702 36.4434C28.8198 36.5329 28.7052 36.6457 28.6265 36.7817C28.5477 36.9142 28.5083 37.07 28.5083 37.249C28.5083 37.4316 28.5495 37.5981 28.6318 37.7485C28.7142 37.8989 28.8377 38.0189 29.0024 38.1084C29.1707 38.1943 29.3766 38.2373 29.6201 38.2373C29.9245 38.2373 30.193 38.1729 30.4258 38.0439C30.6585 37.915 30.8429 37.7575 30.979 37.5713C31.1187 37.3851 31.1938 37.2043 31.2046 37.0288L31.6289 37.5068C31.6038 37.6572 31.5358 37.8237 31.4248 38.0063C31.3138 38.189 31.1652 38.3644 30.979 38.5327C30.7964 38.6974 30.578 38.8353 30.3237 38.9463C30.0731 39.0537 29.7902 39.1074 29.4751 39.1074C29.0812 39.1074 28.7357 39.0304 28.4385 38.8765C28.1449 38.7225 27.9157 38.5166 27.751 38.2588C27.5898 37.9974 27.5093 37.7056 27.5093 37.3833C27.5093 37.0718 27.5701 36.7979 27.6919 36.5615C27.8136 36.3216 27.9891 36.1229 28.2183 35.9653C28.4474 35.8042 28.7231 35.6825 29.0454 35.6001C29.3677 35.5177 29.7275 35.4766 30.125 35.4766H31.2798Z" />
<path d="M36.0977 33.1885V33.9512H32.9556V33.1885H36.0977ZM34.019 31.7759H35.0127V37.5605C35.0127 37.7575 35.0431 37.9061 35.104 38.0063C35.1649 38.1066 35.2437 38.1729 35.3403 38.2051C35.437 38.2373 35.5409 38.2534 35.6519 38.2534C35.7342 38.2534 35.8201 38.2463 35.9097 38.2319C36.0028 38.214 36.0726 38.1997 36.1191 38.189L36.1245 39C36.0457 39.0251 35.9419 39.0483 35.813 39.0698C35.6877 39.0949 35.5355 39.1074 35.3564 39.1074C35.113 39.1074 34.8892 39.0591 34.6851 38.9624C34.481 38.8657 34.318 38.7046 34.1963 38.479C34.0781 38.2498 34.019 37.9419 34.019 37.5552V31.7759Z" />
<path d="M38.3428 33.1885V39H37.3438V33.1885H38.3428ZM37.2686 31.647C37.2686 31.4858 37.3169 31.3498 37.4136 31.2388C37.5138 31.1278 37.6606 31.0723 37.854 31.0723C38.0438 31.0723 38.1888 31.1278 38.2891 31.2388C38.3929 31.3498 38.4448 31.4858 38.4448 31.647C38.4448 31.8009 38.3929 31.9334 38.2891 32.0444C38.1888 32.1519 38.0438 32.2056 37.854 32.2056C37.6606 32.2056 37.5138 32.1519 37.4136 32.0444C37.3169 31.9334 37.2686 31.8009 37.2686 31.647Z" />
<path d="M39.6748 36.1587V36.0352C39.6748 35.6162 39.7357 35.2277 39.8574 34.8696C39.9792 34.508 40.1546 34.1947 40.3838 33.9297C40.613 33.6611 40.8905 33.4535 41.2163 33.3066C41.5422 33.1562 41.9074 33.0811 42.312 33.0811C42.7202 33.0811 43.0872 33.1562 43.4131 33.3066C43.7425 33.4535 44.0218 33.6611 44.251 33.9297C44.4837 34.1947 44.661 34.508 44.7827 34.8696C44.9045 35.2277 44.9653 35.6162 44.9653 36.0352V36.1587C44.9653 36.5776 44.9045 36.9661 44.7827 37.3242C44.661 37.6823 44.4837 37.9956 44.251 38.2642C44.0218 38.5291 43.7443 38.7368 43.4185 38.8872C43.0962 39.034 42.731 39.1074 42.3228 39.1074C41.9146 39.1074 41.5475 39.034 41.2217 38.8872C40.8958 38.7368 40.6165 38.5291 40.3838 38.2642C40.1546 37.9956 39.9792 37.6823 39.8574 37.3242C39.7357 36.9661 39.6748 36.5776 39.6748 36.1587ZM40.6685 36.0352V36.1587C40.6685 36.4487 40.7025 36.7227 40.7705 36.9805C40.8385 37.2347 40.9406 37.4603 41.0767 37.6572C41.2163 37.8542 41.39 38.0099 41.5977 38.1245C41.8053 38.2355 42.047 38.291 42.3228 38.291C42.5949 38.291 42.833 38.2355 43.0371 38.1245C43.2448 38.0099 43.4167 37.8542 43.5527 37.6572C43.6888 37.4603 43.7909 37.2347 43.8589 36.9805C43.9305 36.7227 43.9663 36.4487 43.9663 36.1587V36.0352C43.9663 35.7487 43.9305 35.4784 43.8589 35.2241C43.7909 34.9663 43.687 34.7389 43.5474 34.542C43.4113 34.3415 43.2394 34.1839 43.0317 34.0693C42.8276 33.9548 42.5877 33.8975 42.312 33.8975C42.0399 33.8975 41.8 33.9548 41.5923 34.0693C41.3882 34.1839 41.2163 34.3415 41.0767 34.542C40.9406 34.7389 40.8385 34.9663 40.7705 35.2241C40.7025 35.4784 40.6685 35.7487 40.6685 36.0352Z" />
<path d="M47.2051 34.4292V39H46.2114V33.1885H47.1514L47.2051 34.4292ZM46.9688 35.874L46.5552 35.8579C46.5588 35.4604 46.6178 35.0934 46.7324 34.7568C46.847 34.4167 47.0081 34.1213 47.2158 33.8706C47.4235 33.62 47.6706 33.4266 47.957 33.2905C48.2471 33.1509 48.5675 33.0811 48.9185 33.0811C49.2049 33.0811 49.4627 33.1204 49.6919 33.1992C49.9211 33.2744 50.1162 33.3962 50.2773 33.5645C50.4421 33.7327 50.5674 33.9512 50.6533 34.2197C50.7393 34.4847 50.7822 34.8088 50.7822 35.1919V39H49.7832V35.1812C49.7832 34.8768 49.7384 34.6333 49.6489 34.4507C49.5594 34.2645 49.4287 34.1302 49.2568 34.0479C49.085 33.9619 48.8737 33.9189 48.623 33.9189C48.376 33.9189 48.1504 33.9709 47.9463 34.0747C47.7458 34.1785 47.5721 34.3218 47.4253 34.5044C47.2821 34.687 47.1693 34.8965 47.0869 35.1328C47.0081 35.3656 46.9688 35.6126 46.9688 35.874Z" />
<path d="M55.6753 37.4585C55.6753 37.3153 55.6431 37.1828 55.5786 37.061C55.5177 36.9357 55.3906 36.8229 55.1973 36.7227C55.0075 36.6188 54.721 36.5293 54.3379 36.4541C54.0156 36.3861 53.7238 36.3055 53.4624 36.2124C53.2046 36.1193 52.9844 36.0065 52.8018 35.874C52.6227 35.7415 52.4849 35.5858 52.3882 35.4067C52.2915 35.2277 52.2432 35.0182 52.2432 34.7783C52.2432 34.5492 52.2933 34.3325 52.3936 34.1284C52.4974 33.9243 52.6424 33.7435 52.8286 33.5859C53.0184 33.4284 53.2458 33.3049 53.5107 33.2153C53.7757 33.1258 54.0711 33.0811 54.397 33.0811C54.8625 33.0811 55.2599 33.1634 55.5894 33.3281C55.9188 33.4928 56.1712 33.7131 56.3467 33.9888C56.5221 34.2609 56.6099 34.5635 56.6099 34.8965H55.6162C55.6162 34.7354 55.5679 34.5796 55.4712 34.4292C55.3781 34.2752 55.2402 34.1481 55.0576 34.0479C54.8786 33.9476 54.6584 33.8975 54.397 33.8975C54.1213 33.8975 53.8975 33.9404 53.7256 34.0264C53.5573 34.1087 53.4338 34.2144 53.355 34.3433C53.2798 34.4722 53.2422 34.6082 53.2422 34.7515C53.2422 34.8589 53.2601 34.9556 53.2959 35.0415C53.3353 35.1239 53.4033 35.2008 53.5 35.2725C53.5967 35.3405 53.7327 35.4049 53.9082 35.4658C54.0837 35.5267 54.3075 35.5876 54.5796 35.6484C55.0558 35.7559 55.4479 35.8848 55.7559 36.0352C56.0638 36.1855 56.293 36.37 56.4434 36.5884C56.5938 36.8068 56.6689 37.0718 56.6689 37.3833C56.6689 37.6375 56.6152 37.8703 56.5078 38.0815C56.404 38.2928 56.2518 38.4754 56.0513 38.6294C55.8543 38.7798 55.618 38.8979 55.3423 38.9839C55.0701 39.0662 54.764 39.1074 54.4238 39.1074C53.9118 39.1074 53.4785 39.0161 53.124 38.8335C52.7695 38.6509 52.501 38.4146 52.3184 38.1245C52.1357 37.8345 52.0444 37.5283 52.0444 37.2061H53.0435C53.0578 37.4782 53.1366 37.6948 53.2798 37.856C53.423 38.0135 53.5985 38.1263 53.8062 38.1943C54.0138 38.2588 54.2197 38.291 54.4238 38.291C54.696 38.291 54.9233 38.2552 55.106 38.1836C55.2922 38.112 55.4336 38.0135 55.5303 37.8882C55.627 37.7629 55.6753 37.6196 55.6753 37.4585Z" />
</svg>
