<svg width="60" height="50" viewBox="0 0 60 50" fill="none" xmlns="http://www.w3.org/2000/svg">
<path d="M10.251 37.0234C10.251 36.8408 10.2223 36.6797 10.165 36.54C10.1113 36.3968 10.0146 36.2679 9.875 36.1533C9.73893 36.0387 9.54915 35.9295 9.30566 35.8257C9.06576 35.7218 8.76139 35.6162 8.39258 35.5088C8.00586 35.3942 7.65674 35.2671 7.34521 35.1274C7.03369 34.9842 6.76693 34.8213 6.54492 34.6387C6.32292 34.4561 6.15283 34.2466 6.03467 34.0103C5.9165 33.7739 5.85742 33.5036 5.85742 33.1992C5.85742 32.8949 5.92008 32.6138 6.04541 32.356C6.17074 32.0981 6.34977 31.8743 6.58252 31.6846C6.81885 31.4912 7.09993 31.3408 7.42578 31.2334C7.75163 31.126 8.11507 31.0723 8.51611 31.0723C9.10335 31.0723 9.60107 31.1851 10.0093 31.4106C10.4211 31.6326 10.7344 31.9245 10.9492 32.2861C11.1641 32.6442 11.2715 33.0273 11.2715 33.4355H10.2402C10.2402 33.1419 10.1776 32.8823 10.0522 32.6567C9.92692 32.4276 9.73714 32.2485 9.48291 32.1196C9.22868 31.9871 8.90641 31.9209 8.51611 31.9209C8.1473 31.9209 7.84294 31.9764 7.60303 32.0874C7.36312 32.1984 7.18408 32.3488 7.06592 32.5386C6.95133 32.7284 6.89404 32.945 6.89404 33.1885C6.89404 33.3532 6.92806 33.5036 6.99609 33.6396C7.06771 33.7721 7.17692 33.8957 7.32373 34.0103C7.47412 34.1248 7.6639 34.2305 7.89307 34.3271C8.12581 34.4238 8.40332 34.5169 8.72559 34.6064C9.1696 34.7318 9.55273 34.8714 9.875 35.0254C10.1973 35.1794 10.4622 35.353 10.6699 35.5464C10.8812 35.7362 11.0369 35.9528 11.1372 36.1963C11.241 36.4362 11.293 36.7083 11.293 37.0127C11.293 37.3314 11.2285 37.6196 11.0996 37.8774C10.9707 38.1353 10.7863 38.3555 10.5464 38.5381C10.3065 38.7207 10.0182 38.8621 9.68164 38.9624C9.34863 39.0591 8.97624 39.1074 8.56445 39.1074C8.2028 39.1074 7.84652 39.0573 7.49561 38.957C7.14827 38.8568 6.83138 38.7064 6.54492 38.5059C6.26204 38.3053 6.03467 38.0583 5.86279 37.7646C5.6945 37.4674 5.61035 37.1237 5.61035 36.7334H6.6416C6.6416 37.002 6.69352 37.2329 6.79736 37.4263C6.9012 37.616 7.04264 37.7736 7.22168 37.8989C7.4043 38.0243 7.61019 38.1174 7.83936 38.1782C8.0721 38.2355 8.3138 38.2642 8.56445 38.2642C8.92611 38.2642 9.23226 38.214 9.48291 38.1138C9.73356 38.0135 9.92334 37.8703 10.0522 37.6841C10.1847 37.4979 10.251 37.2777 10.251 37.0234Z" />
<path d="M14.7896 38.291C15.0259 38.291 15.2443 38.2427 15.4448 38.146C15.6453 38.0493 15.8101 37.9168 15.939 37.7485C16.0679 37.5767 16.1413 37.3815 16.1592 37.1631H17.1045C17.0866 37.5068 16.9702 37.8273 16.7554 38.1245C16.5441 38.4181 16.2666 38.6562 15.9229 38.8389C15.5791 39.0179 15.2013 39.1074 14.7896 39.1074C14.3527 39.1074 13.9714 39.0304 13.6455 38.8765C13.3232 38.7225 13.0547 38.5112 12.8398 38.2427C12.6286 37.9741 12.4692 37.6662 12.3618 37.3188C12.258 36.9679 12.2061 36.5973 12.2061 36.207V35.9814C12.2061 35.5911 12.258 35.2223 12.3618 34.875C12.4692 34.5241 12.6286 34.2144 12.8398 33.9458C13.0547 33.6772 13.3232 33.466 13.6455 33.312C13.9714 33.158 14.3527 33.0811 14.7896 33.0811C15.2443 33.0811 15.6418 33.1742 15.9819 33.3604C16.3221 33.543 16.5889 33.7936 16.7822 34.1123C16.9792 34.4274 17.0866 34.7855 17.1045 35.1865H16.1592C16.1413 34.9466 16.0732 34.73 15.9551 34.5366C15.8405 34.3433 15.6829 34.1893 15.4824 34.0747C15.2855 33.9565 15.0545 33.8975 14.7896 33.8975C14.4852 33.8975 14.2292 33.9583 14.0215 34.0801C13.8174 34.1982 13.6545 34.3594 13.5327 34.5635C13.4146 34.764 13.3286 34.9878 13.2749 35.2349C13.2248 35.4784 13.1997 35.7272 13.1997 35.9814V36.207C13.1997 36.4613 13.2248 36.7119 13.2749 36.959C13.325 37.2061 13.4092 37.4299 13.5273 37.6304C13.6491 37.8309 13.812 37.992 14.0161 38.1138C14.2238 38.2319 14.4816 38.291 14.7896 38.291Z" />
<path d="M19.2153 30.75V39H18.2217V30.75H19.2153ZM18.979 35.874L18.5654 35.8579C18.569 35.4604 18.6281 35.0934 18.7427 34.7568C18.8573 34.4167 19.0184 34.1213 19.2261 33.8706C19.4338 33.62 19.6808 33.4266 19.9673 33.2905C20.2573 33.1509 20.5778 33.0811 20.9287 33.0811C21.2152 33.0811 21.473 33.1204 21.7021 33.1992C21.9313 33.2744 22.1265 33.3962 22.2876 33.5645C22.4523 33.7327 22.5776 33.9512 22.6636 34.2197C22.7495 34.4847 22.7925 34.8088 22.7925 35.1919V39H21.7935V35.1812C21.7935 34.8768 21.7487 34.6333 21.6592 34.4507C21.5697 34.2645 21.439 34.1302 21.2671 34.0479C21.0952 33.9619 20.884 33.9189 20.6333 33.9189C20.3862 33.9189 20.1606 33.9709 19.9565 34.0747C19.756 34.1785 19.5824 34.3218 19.4355 34.5044C19.2923 34.687 19.1795 34.8965 19.0972 35.1328C19.0184 35.3656 18.979 35.6126 18.979 35.874Z" />
<path d="M26.6919 39.1074C26.2873 39.1074 25.9202 39.0394 25.5908 38.9033C25.265 38.7637 24.9839 38.5685 24.7476 38.3179C24.5148 38.0672 24.3358 37.77 24.2104 37.4263C24.0851 37.0825 24.0225 36.7065 24.0225 36.2983V36.0728C24.0225 35.6001 24.0923 35.1794 24.2319 34.8105C24.3716 34.4382 24.5614 34.123 24.8013 33.8652C25.0412 33.6074 25.3133 33.4123 25.6177 33.2798C25.922 33.1473 26.2371 33.0811 26.563 33.0811C26.9784 33.0811 27.3364 33.1527 27.6372 33.2959C27.9416 33.4391 28.1904 33.6396 28.3838 33.8975C28.5771 34.1517 28.7204 34.4525 28.8135 34.7998C28.9066 35.1436 28.9531 35.5195 28.9531 35.9277V36.3735H24.6133V35.5625H27.9595V35.4873C27.9451 35.2295 27.8914 34.9788 27.7983 34.7354C27.7088 34.4919 27.5656 34.2913 27.3687 34.1338C27.1717 33.9762 26.9032 33.8975 26.563 33.8975C26.3374 33.8975 26.1297 33.9458 25.9399 34.0425C25.7502 34.1356 25.5872 34.2752 25.4512 34.4614C25.3151 34.6476 25.2095 34.875 25.1343 35.1436C25.0591 35.4121 25.0215 35.7218 25.0215 36.0728V36.2983C25.0215 36.5741 25.0591 36.8337 25.1343 37.0771C25.2131 37.3171 25.3258 37.5283 25.4727 37.7109C25.623 37.8936 25.8039 38.0368 26.0151 38.1406C26.23 38.2445 26.4735 38.2964 26.7456 38.2964C27.0965 38.2964 27.3937 38.2248 27.6372 38.0815C27.8807 37.9383 28.0938 37.7467 28.2764 37.5068L28.8779 37.9849C28.7526 38.1746 28.5933 38.3555 28.3999 38.5273C28.2065 38.6992 27.9684 38.8389 27.6855 38.9463C27.4062 39.0537 27.075 39.1074 26.6919 39.1074Z" />
<path d="M33.7764 37.8721V30.75H34.7754V39H33.8623L33.7764 37.8721ZM29.8662 36.1587V36.0459C29.8662 35.6019 29.9199 35.1991 30.0273 34.8374C30.1383 34.4722 30.2941 34.1589 30.4946 33.8975C30.6987 33.6361 30.9404 33.4355 31.2197 33.2959C31.5026 33.1527 31.8177 33.0811 32.165 33.0811C32.5303 33.0811 32.849 33.1455 33.1211 33.2744C33.3968 33.3997 33.6296 33.5841 33.8193 33.8276C34.0127 34.0675 34.1649 34.3576 34.2759 34.6978C34.3869 35.0379 34.4639 35.4229 34.5068 35.8525V36.3467C34.4674 36.7728 34.3905 37.1559 34.2759 37.4961C34.1649 37.8363 34.0127 38.1263 33.8193 38.3662C33.6296 38.6061 33.3968 38.7905 33.1211 38.9194C32.8454 39.0448 32.5231 39.1074 32.1543 39.1074C31.8141 39.1074 31.5026 39.034 31.2197 38.8872C30.9404 38.7404 30.6987 38.5345 30.4946 38.2695C30.2941 38.0046 30.1383 37.693 30.0273 37.335C29.9199 36.9733 29.8662 36.5812 29.8662 36.1587ZM30.8652 36.0459V36.1587C30.8652 36.4487 30.8939 36.7209 30.9512 36.9751C31.012 37.2293 31.1051 37.4531 31.2305 37.6465C31.3558 37.8398 31.5151 37.992 31.7085 38.103C31.9019 38.2104 32.1328 38.2642 32.4014 38.2642C32.7308 38.2642 33.0011 38.1943 33.2124 38.0547C33.4272 37.915 33.5991 37.7306 33.728 37.5015C33.8569 37.2723 33.9572 37.0234 34.0288 36.7549V35.4604C33.9858 35.2635 33.9232 35.0737 33.8408 34.8911C33.762 34.7049 33.6582 34.5402 33.5293 34.397C33.404 34.2502 33.2482 34.1338 33.062 34.0479C32.8794 33.9619 32.6628 33.9189 32.4121 33.9189C32.14 33.9189 31.9054 33.9762 31.7085 34.0908C31.5151 34.2018 31.3558 34.3558 31.2305 34.5527C31.1051 34.7461 31.012 34.9717 30.9512 35.2295C30.8939 35.4837 30.8652 35.7559 30.8652 36.0459Z" />
<path d="M39.8779 37.6572V33.1885H40.877V39H39.9263L39.8779 37.6572ZM40.0659 36.4326L40.4795 36.4219C40.4795 36.8086 40.4383 37.1667 40.356 37.4961C40.2772 37.8219 40.1483 38.1048 39.9692 38.3447C39.7902 38.5846 39.5557 38.7726 39.2656 38.9087C38.9756 39.0412 38.6229 39.1074 38.2075 39.1074C37.9246 39.1074 37.665 39.0662 37.4287 38.9839C37.196 38.9015 36.9954 38.7744 36.8271 38.6025C36.6589 38.4307 36.5282 38.2069 36.4351 37.9312C36.3455 37.6554 36.3008 37.3242 36.3008 36.9375V33.1885H37.2944V36.9482C37.2944 37.2096 37.3231 37.4263 37.3804 37.5981C37.4412 37.7664 37.5218 37.9007 37.6221 38.001C37.7259 38.0977 37.8405 38.1657 37.9658 38.2051C38.0947 38.2445 38.2272 38.2642 38.3633 38.2642C38.7858 38.2642 39.1206 38.1836 39.3677 38.0225C39.6147 37.8577 39.792 37.6375 39.8994 37.3618C40.0104 37.0825 40.0659 36.7728 40.0659 36.4326Z" />
<path d="M43.4712 30.75V39H42.4722V30.75H43.4712Z" />
<path d="M47.478 39.1074C47.0734 39.1074 46.7064 39.0394 46.377 38.9033C46.0511 38.7637 45.77 38.5685 45.5337 38.3179C45.3009 38.0672 45.1219 37.77 44.9966 37.4263C44.8713 37.0825 44.8086 36.7065 44.8086 36.2983V36.0728C44.8086 35.6001 44.8784 35.1794 45.0181 34.8105C45.1577 34.4382 45.3475 34.123 45.5874 33.8652C45.8273 33.6074 46.0994 33.4123 46.4038 33.2798C46.7082 33.1473 47.0233 33.0811 47.3491 33.0811C47.7645 33.0811 48.1226 33.1527 48.4233 33.2959C48.7277 33.4391 48.9766 33.6396 49.1699 33.8975C49.3633 34.1517 49.5065 34.4525 49.5996 34.7998C49.6927 35.1436 49.7393 35.5195 49.7393 35.9277V36.3735H45.3994V35.5625H48.7456V35.4873C48.7313 35.2295 48.6776 34.9788 48.5845 34.7354C48.495 34.4919 48.3517 34.2913 48.1548 34.1338C47.9578 33.9762 47.6893 33.8975 47.3491 33.8975C47.1235 33.8975 46.9159 33.9458 46.7261 34.0425C46.5363 34.1356 46.3734 34.2752 46.2373 34.4614C46.1012 34.6476 45.9956 34.875 45.9204 35.1436C45.8452 35.4121 45.8076 35.7218 45.8076 36.0728V36.2983C45.8076 36.5741 45.8452 36.8337 45.9204 37.0771C45.9992 37.3171 46.112 37.5283 46.2588 37.7109C46.4092 37.8936 46.59 38.0368 46.8013 38.1406C47.0161 38.2445 47.2596 38.2964 47.5317 38.2964C47.8826 38.2964 48.1799 38.2248 48.4233 38.0815C48.6668 37.9383 48.8799 37.7467 49.0625 37.5068L49.6641 37.9849C49.5387 38.1746 49.3794 38.3555 49.186 38.5273C48.9927 38.6992 48.7546 38.8389 48.4717 38.9463C48.1924 39.0537 47.8612 39.1074 47.478 39.1074Z" />
<path d="M54.2832 37.4585C54.2832 37.3153 54.251 37.1828 54.1865 37.061C54.1257 36.9357 53.9985 36.8229 53.8052 36.7227C53.6154 36.6188 53.3289 36.5293 52.9458 36.4541C52.6235 36.3861 52.3317 36.3055 52.0703 36.2124C51.8125 36.1193 51.5923 36.0065 51.4097 35.874C51.2306 35.7415 51.0928 35.5858 50.9961 35.4067C50.8994 35.2277 50.8511 35.0182 50.8511 34.7783C50.8511 34.5492 50.9012 34.3325 51.0015 34.1284C51.1053 33.9243 51.2503 33.7435 51.4365 33.5859C51.6263 33.4284 51.8537 33.3049 52.1187 33.2153C52.3836 33.1258 52.679 33.0811 53.0049 33.0811C53.4704 33.0811 53.8678 33.1634 54.1973 33.3281C54.5267 33.4928 54.7791 33.7131 54.9546 33.9888C55.13 34.2609 55.2178 34.5635 55.2178 34.8965H54.2241C54.2241 34.7354 54.1758 34.5796 54.0791 34.4292C53.986 34.2752 53.8481 34.1481 53.6655 34.0479C53.4865 33.9476 53.2663 33.8975 53.0049 33.8975C52.7292 33.8975 52.5054 33.9404 52.3335 34.0264C52.1652 34.1087 52.0417 34.2144 51.9629 34.3433C51.8877 34.4722 51.8501 34.6082 51.8501 34.7515C51.8501 34.8589 51.868 34.9556 51.9038 35.0415C51.9432 35.1239 52.0112 35.2008 52.1079 35.2725C52.2046 35.3405 52.3407 35.4049 52.5161 35.4658C52.6916 35.5267 52.9154 35.5876 53.1875 35.6484C53.6637 35.7559 54.0558 35.8848 54.3638 36.0352C54.6717 36.1855 54.9009 36.37 55.0513 36.5884C55.2017 36.8068 55.2769 37.0718 55.2769 37.3833C55.2769 37.6375 55.2231 37.8703 55.1157 38.0815C55.0119 38.2928 54.8597 38.4754 54.6592 38.6294C54.4622 38.7798 54.2259 38.8979 53.9502 38.9839C53.6781 39.0662 53.3719 39.1074 53.0317 39.1074C52.5197 39.1074 52.0864 39.0161 51.7319 38.8335C51.3774 38.6509 51.1089 38.4146 50.9263 38.1245C50.7437 37.8345 50.6523 37.5283 50.6523 37.2061H51.6514C51.6657 37.4782 51.7445 37.6948 51.8877 37.856C52.0309 38.0135 52.2064 38.1263 52.4141 38.1943C52.6217 38.2588 52.8276 38.291 53.0317 38.291C53.3039 38.291 53.5312 38.2552 53.7139 38.1836C53.9001 38.112 54.0415 38.0135 54.1382 37.8882C54.2349 37.7629 54.2832 37.6196 54.2832 37.4585Z" />
<mask id="mask0_13034_6068" style="mask-type:alpha" maskUnits="userSpaceOnUse" x="20" y="5" width="20" height="20">
<rect x="20" y="5" width="20" height="20" fill="#D9D9D9"/>
</mask>
<g mask="url(#mask0_13034_6068)">
<path d="M24.1667 23.3337C23.7083 23.3337 23.3158 23.1706 22.9892 22.8445C22.6631 22.5178 22.5 22.1253 22.5 21.667V10.0003C22.5 9.54199 22.6631 9.14977 22.9892 8.82366C23.3158 8.49699 23.7083 8.33366 24.1667 8.33366H25V6.66699H26.6667V8.33366H33.3333V6.66699H35V8.33366H35.8333C36.2917 8.33366 36.6842 8.49699 37.0108 8.82366C37.3369 9.14977 37.5 9.54199 37.5 10.0003V21.667C37.5 22.1253 37.3369 22.5178 37.0108 22.8445C36.6842 23.1706 36.2917 23.3337 35.8333 23.3337H24.1667ZM24.1667 21.667H35.8333V13.3337H24.1667V21.667ZM24.1667 11.667H35.8333V10.0003H24.1667V11.667ZM25.8333 16.667V15.0003H34.1667V16.667H25.8333ZM25.8333 20.0003V18.3337H31.6667V20.0003H25.8333Z" />
</g>
</svg>
