<svg width="60" height="50" viewBox="0 0 60 50" fill="none" xmlns="http://www.w3.org/2000/svg">
<path d="M14.0757 37.0234C14.0757 36.8408 14.047 36.6797 13.9897 36.54C13.936 36.3968 13.8394 36.2679 13.6997 36.1533C13.5636 36.0387 13.3739 35.9295 13.1304 35.8257C12.8905 35.7218 12.5861 35.6162 12.2173 35.5088C11.8306 35.3942 11.4814 35.2671 11.1699 35.1274C10.8584 34.9842 10.5916 34.8213 10.3696 34.6387C10.1476 34.4561 9.97754 34.2466 9.85938 34.0103C9.74121 33.7739 9.68213 33.5036 9.68213 33.1992C9.68213 32.8949 9.74479 32.6138 9.87012 32.356C9.99544 32.0981 10.1745 31.8743 10.4072 31.6846C10.6436 31.4912 10.9246 31.3408 11.2505 31.2334C11.5763 31.126 11.9398 31.0723 12.3408 31.0723C12.9281 31.0723 13.4258 31.1851 13.834 31.4106C14.2458 31.6326 14.5591 31.9245 14.7739 32.2861C14.9888 32.6442 15.0962 33.0273 15.0962 33.4355H14.0649C14.0649 33.1419 14.0023 32.8823 13.877 32.6567C13.7516 32.4276 13.5618 32.2485 13.3076 32.1196C13.0534 31.9871 12.7311 31.9209 12.3408 31.9209C11.972 31.9209 11.6676 31.9764 11.4277 32.0874C11.1878 32.1984 11.0088 32.3488 10.8906 32.5386C10.776 32.7284 10.7188 32.945 10.7188 33.1885C10.7188 33.3532 10.7528 33.5036 10.8208 33.6396C10.8924 33.7721 11.0016 33.8957 11.1484 34.0103C11.2988 34.1248 11.4886 34.2305 11.7178 34.3271C11.9505 34.4238 12.228 34.5169 12.5503 34.6064C12.9943 34.7318 13.3774 34.8714 13.6997 35.0254C14.022 35.1794 14.2869 35.353 14.4946 35.5464C14.7059 35.7362 14.8617 35.9528 14.9619 36.1963C15.0658 36.4362 15.1177 36.7083 15.1177 37.0127C15.1177 37.3314 15.0532 37.6196 14.9243 37.8774C14.7954 38.1353 14.611 38.3555 14.3711 38.5381C14.1312 38.7207 13.8429 38.8621 13.5063 38.9624C13.1733 39.0591 12.8009 39.1074 12.3892 39.1074C12.0275 39.1074 11.6712 39.0573 11.3203 38.957C10.973 38.8568 10.6561 38.7064 10.3696 38.5059C10.0868 38.3053 9.85938 38.0583 9.6875 37.7646C9.51921 37.4674 9.43506 37.1237 9.43506 36.7334H10.4663C10.4663 37.002 10.5182 37.2329 10.6221 37.4263C10.7259 37.616 10.8674 37.7736 11.0464 37.8989C11.229 38.0243 11.4349 38.1174 11.6641 38.1782C11.8968 38.2355 12.1385 38.2642 12.3892 38.2642C12.7508 38.2642 13.057 38.214 13.3076 38.1138C13.5583 38.0135 13.748 37.8703 13.877 37.6841C14.0094 37.4979 14.0757 37.2777 14.0757 37.0234Z" />
<path d="M18.7002 39.1074C18.2956 39.1074 17.9285 39.0394 17.5991 38.9033C17.2733 38.7637 16.9922 38.5685 16.7559 38.3179C16.5231 38.0672 16.3441 37.77 16.2188 37.4263C16.0934 37.0825 16.0308 36.7065 16.0308 36.2983V36.0728C16.0308 35.6001 16.1006 35.1794 16.2402 34.8105C16.3799 34.4382 16.5697 34.123 16.8096 33.8652C17.0495 33.6074 17.3216 33.4123 17.626 33.2798C17.9303 33.1473 18.2454 33.0811 18.5713 33.0811C18.9867 33.0811 19.3447 33.1527 19.6455 33.2959C19.9499 33.4391 20.1987 33.6396 20.3921 33.8975C20.5854 34.1517 20.7287 34.4525 20.8218 34.7998C20.9149 35.1436 20.9614 35.5195 20.9614 35.9277V36.3735H16.6216V35.5625H19.9678V35.4873C19.9535 35.2295 19.8997 34.9788 19.8066 34.7354C19.7171 34.4919 19.5739 34.2913 19.377 34.1338C19.18 33.9762 18.9115 33.8975 18.5713 33.8975C18.3457 33.8975 18.138 33.9458 17.9482 34.0425C17.7585 34.1356 17.5955 34.2752 17.4595 34.4614C17.3234 34.6476 17.2178 34.875 17.1426 35.1436C17.0674 35.4121 17.0298 35.7218 17.0298 36.0728V36.2983C17.0298 36.5741 17.0674 36.8337 17.1426 37.0771C17.2214 37.3171 17.3341 37.5283 17.481 37.7109C17.6313 37.8936 17.8122 38.0368 18.0234 38.1406C18.2383 38.2445 18.4818 38.2964 18.7539 38.2964C19.1048 38.2964 19.402 38.2248 19.6455 38.0815C19.889 37.9383 20.1021 37.7467 20.2847 37.5068L20.8862 37.9849C20.7609 38.1746 20.6016 38.3555 20.4082 38.5273C20.2148 38.6992 19.9767 38.8389 19.6938 38.9463C19.4146 39.0537 19.0833 39.1074 18.7002 39.1074Z" />
<path d="M24.5547 33.1885V33.9512H21.4126V33.1885H24.5547ZM22.4761 31.7759H23.4697V37.5605C23.4697 37.7575 23.5002 37.9061 23.561 38.0063C23.6219 38.1066 23.7007 38.1729 23.7974 38.2051C23.894 38.2373 23.9979 38.2534 24.1089 38.2534C24.1912 38.2534 24.2772 38.2463 24.3667 38.2319C24.4598 38.214 24.5296 38.1997 24.5762 38.189L24.5815 39C24.5028 39.0251 24.3989 39.0483 24.27 39.0698C24.1447 39.0949 23.9925 39.1074 23.8135 39.1074C23.57 39.1074 23.3462 39.0591 23.1421 38.9624C22.938 38.8657 22.7751 38.7046 22.6533 38.479C22.5352 38.2498 22.4761 37.9419 22.4761 37.5552V31.7759Z" />
<path d="M28.1533 33.1885V33.9512H25.0112V33.1885H28.1533ZM26.0747 31.7759H27.0684V37.5605C27.0684 37.7575 27.0988 37.9061 27.1597 38.0063C27.2205 38.1066 27.2993 38.1729 27.396 38.2051C27.4927 38.2373 27.5965 38.2534 27.7075 38.2534C27.7899 38.2534 27.8758 38.2463 27.9653 38.2319C28.0584 38.214 28.1283 38.1997 28.1748 38.189L28.1802 39C28.1014 39.0251 27.9976 39.0483 27.8687 39.0698C27.7433 39.0949 27.5911 39.1074 27.4121 39.1074C27.1686 39.1074 26.9448 39.0591 26.7407 38.9624C26.5366 38.8657 26.3737 38.7046 26.252 38.479C26.1338 38.2498 26.0747 37.9419 26.0747 37.5552V31.7759Z" />
<path d="M30.3984 33.1885V39H29.3994V33.1885H30.3984ZM29.3242 31.647C29.3242 31.4858 29.3726 31.3498 29.4692 31.2388C29.5695 31.1278 29.7163 31.0723 29.9097 31.0723C30.0994 31.0723 30.2445 31.1278 30.3447 31.2388C30.4486 31.3498 30.5005 31.4858 30.5005 31.647C30.5005 31.8009 30.4486 31.9334 30.3447 32.0444C30.2445 32.1519 30.0994 32.2056 29.9097 32.2056C29.7163 32.2056 29.5695 32.1519 29.4692 32.0444C29.3726 31.9334 29.3242 31.8009 29.3242 31.647Z" />
<path d="M32.9873 34.4292V39H31.9937V33.1885H32.9336L32.9873 34.4292ZM32.751 35.874L32.3374 35.8579C32.341 35.4604 32.4001 35.0934 32.5146 34.7568C32.6292 34.4167 32.7904 34.1213 32.998 33.8706C33.2057 33.62 33.4528 33.4266 33.7393 33.2905C34.0293 33.1509 34.3498 33.0811 34.7007 33.0811C34.9871 33.0811 35.245 33.1204 35.4741 33.1992C35.7033 33.2744 35.8984 33.3962 36.0596 33.5645C36.2243 33.7327 36.3496 33.9512 36.4355 34.2197C36.5215 34.4847 36.5645 34.8088 36.5645 35.1919V39H35.5654V35.1812C35.5654 34.8768 35.5207 34.6333 35.4312 34.4507C35.3416 34.2645 35.2109 34.1302 35.0391 34.0479C34.8672 33.9619 34.6559 33.9189 34.4053 33.9189C34.1582 33.9189 33.9326 33.9709 33.7285 34.0747C33.528 34.1785 33.3543 34.3218 33.2075 34.5044C33.0643 34.687 32.9515 34.8965 32.8691 35.1328C32.7904 35.3656 32.751 35.6126 32.751 35.874Z" />
<path d="M41.8389 33.1885H42.7412V38.8765C42.7412 39.3885 42.6374 39.8254 42.4297 40.187C42.222 40.5487 41.932 40.8226 41.5596 41.0088C41.1908 41.1986 40.7646 41.2935 40.2812 41.2935C40.0807 41.2935 39.8444 41.2612 39.5723 41.1968C39.3037 41.1359 39.0387 41.0303 38.7773 40.8799C38.5195 40.7331 38.3029 40.5343 38.1274 40.2837L38.6484 39.6929C38.8919 39.9865 39.1462 40.1906 39.4111 40.3052C39.6797 40.4198 39.9447 40.4771 40.2061 40.4771C40.5212 40.4771 40.7933 40.418 41.0225 40.2998C41.2516 40.1816 41.4289 40.0062 41.5542 39.7734C41.6831 39.5443 41.7476 39.2614 41.7476 38.9248V34.4668L41.8389 33.1885ZM37.8374 36.1587V36.0459C37.8374 35.6019 37.8893 35.1991 37.9932 34.8374C38.1006 34.4722 38.2528 34.1589 38.4497 33.8975C38.6502 33.6361 38.8919 33.4355 39.1748 33.2959C39.4577 33.1527 39.7764 33.0811 40.1309 33.0811C40.4961 33.0811 40.8148 33.1455 41.0869 33.2744C41.3626 33.3997 41.5954 33.5841 41.7852 33.8276C41.9785 34.0675 42.1307 34.3576 42.2417 34.6978C42.3527 35.0379 42.4297 35.4229 42.4727 35.8525V36.3467C42.4333 36.7728 42.3563 37.1559 42.2417 37.4961C42.1307 37.8363 41.9785 38.1263 41.7852 38.3662C41.5954 38.6061 41.3626 38.7905 41.0869 38.9194C40.8112 39.0448 40.4889 39.1074 40.1201 39.1074C39.7728 39.1074 39.4577 39.034 39.1748 38.8872C38.8955 38.7404 38.6556 38.5345 38.4551 38.2695C38.2546 38.0046 38.1006 37.693 37.9932 37.335C37.8893 36.9733 37.8374 36.5812 37.8374 36.1587ZM38.8311 36.0459V36.1587C38.8311 36.4487 38.8597 36.7209 38.917 36.9751C38.9779 37.2293 39.0692 37.4531 39.1909 37.6465C39.3162 37.8398 39.4756 37.992 39.6689 38.103C39.8623 38.2104 40.0933 38.2642 40.3618 38.2642C40.6912 38.2642 40.9634 38.1943 41.1782 38.0547C41.3931 37.915 41.5632 37.7306 41.6885 37.5015C41.8174 37.2723 41.9176 37.0234 41.9893 36.7549V35.4604C41.9499 35.2635 41.889 35.0737 41.8066 34.8911C41.7279 34.7049 41.624 34.5402 41.4951 34.397C41.3698 34.2502 41.214 34.1338 41.0278 34.0479C40.8416 33.9619 40.6232 33.9189 40.3726 33.9189C40.1004 33.9189 39.8659 33.9762 39.6689 34.0908C39.4756 34.2018 39.3162 34.3558 39.1909 34.5527C39.0692 34.7461 38.9779 34.9717 38.917 35.2295C38.8597 35.4837 38.8311 35.7559 38.8311 36.0459Z" />
<path d="M47.6343 37.4585C47.6343 37.3153 47.6021 37.1828 47.5376 37.061C47.4767 36.9357 47.3496 36.8229 47.1562 36.7227C46.9665 36.6188 46.68 36.5293 46.2969 36.4541C45.9746 36.3861 45.6828 36.3055 45.4214 36.2124C45.1636 36.1193 44.9434 36.0065 44.7607 35.874C44.5817 35.7415 44.4438 35.5858 44.3472 35.4067C44.2505 35.2277 44.2021 35.0182 44.2021 34.7783C44.2021 34.5492 44.2523 34.3325 44.3525 34.1284C44.4564 33.9243 44.6014 33.7435 44.7876 33.5859C44.9774 33.4284 45.2048 33.3049 45.4697 33.2153C45.7347 33.1258 46.0301 33.0811 46.356 33.0811C46.8215 33.0811 47.2189 33.1634 47.5483 33.3281C47.8778 33.4928 48.1302 33.7131 48.3057 33.9888C48.4811 34.2609 48.5688 34.5635 48.5688 34.8965H47.5752C47.5752 34.7354 47.5269 34.5796 47.4302 34.4292C47.3371 34.2752 47.1992 34.1481 47.0166 34.0479C46.8376 33.9476 46.6174 33.8975 46.356 33.8975C46.0802 33.8975 45.8564 33.9404 45.6846 34.0264C45.5163 34.1087 45.3927 34.2144 45.314 34.3433C45.2388 34.4722 45.2012 34.6082 45.2012 34.7515C45.2012 34.8589 45.2191 34.9556 45.2549 35.0415C45.2943 35.1239 45.3623 35.2008 45.459 35.2725C45.5557 35.3405 45.6917 35.4049 45.8672 35.4658C46.0426 35.5267 46.2664 35.5876 46.5386 35.6484C47.0148 35.7559 47.4069 35.8848 47.7148 36.0352C48.0228 36.1855 48.252 36.37 48.4023 36.5884C48.5527 36.8068 48.6279 37.0718 48.6279 37.3833C48.6279 37.6375 48.5742 37.8703 48.4668 38.0815C48.363 38.2928 48.2108 38.4754 48.0103 38.6294C47.8133 38.7798 47.577 38.8979 47.3013 38.9839C47.0291 39.0662 46.723 39.1074 46.3828 39.1074C45.8708 39.1074 45.4375 39.0161 45.083 38.8335C44.7285 38.6509 44.46 38.4146 44.2773 38.1245C44.0947 37.8345 44.0034 37.5283 44.0034 37.2061H45.0024C45.0168 37.4782 45.0955 37.6948 45.2388 37.856C45.382 38.0135 45.5575 38.1263 45.7651 38.1943C45.9728 38.2588 46.1787 38.291 46.3828 38.291C46.6549 38.291 46.8823 38.2552 47.0649 38.1836C47.2511 38.112 47.3926 38.0135 47.4893 37.8882C47.5859 37.7629 47.6343 37.6196 47.6343 37.4585Z" />
<mask id="mask0_13034_6065" style="mask-type:alpha" maskUnits="userSpaceOnUse" x="20" y="5" width="20" height="20">
<rect x="20" y="5" width="20" height="20" fill="#D9D9D9"/>
</mask>
<g mask="url(#mask0_13034_6065)">
<path d="M27.7083 23.3337L27.375 20.667C27.1944 20.5975 27.0244 20.5142 26.865 20.417C26.705 20.3198 26.5486 20.2156 26.3958 20.1045L23.9167 21.1462L21.625 17.1878L23.7708 15.5628C23.7569 15.4656 23.75 15.3717 23.75 15.2812V14.7187C23.75 14.6287 23.7569 14.535 23.7708 14.4378L21.625 12.8128L23.9167 8.85449L26.3958 9.89616C26.5486 9.78505 26.7083 9.68088 26.875 9.58366C27.0417 9.48644 27.2083 9.4031 27.375 9.33366L27.7083 6.66699H32.2917L32.625 9.33366C32.8056 9.4031 32.9758 9.48644 33.1358 9.58366C33.2953 9.68088 33.4514 9.78505 33.6042 9.89616L36.0833 8.85449L38.375 12.8128L36.2292 14.4378C36.2431 14.535 36.25 14.6287 36.25 14.7187V15.2812C36.25 15.3717 36.2361 15.4656 36.2083 15.5628L38.3542 17.1878L36.0625 21.1462L33.6042 20.1045C33.4514 20.2156 33.2917 20.3198 33.125 20.417C32.9583 20.5142 32.7917 20.5975 32.625 20.667L32.2917 23.3337H27.7083ZM30.0417 17.917C30.8472 17.917 31.5347 17.6323 32.1042 17.0628C32.6736 16.4934 32.9583 15.8059 32.9583 15.0003C32.9583 14.1948 32.6736 13.5073 32.1042 12.9378C31.5347 12.3684 30.8472 12.0837 30.0417 12.0837C29.2222 12.0837 28.5311 12.3684 27.9683 12.9378C27.4061 13.5073 27.125 14.1948 27.125 15.0003C27.125 15.8059 27.4061 16.4934 27.9683 17.0628C28.5311 17.6323 29.2222 17.917 30.0417 17.917ZM30.0417 16.2503C29.6944 16.2503 29.3994 16.1287 29.1567 15.8853C28.9133 15.6425 28.7917 15.3475 28.7917 15.0003C28.7917 14.6531 28.9133 14.3581 29.1567 14.1153C29.3994 13.872 29.6944 13.7503 30.0417 13.7503C30.3889 13.7503 30.6842 13.872 30.9275 14.1153C31.1703 14.3581 31.2917 14.6531 31.2917 15.0003C31.2917 15.3475 31.1703 15.6425 30.9275 15.8853C30.6842 16.1287 30.3889 16.2503 30.0417 16.2503ZM29.1667 21.667H30.8125L31.1042 19.4587C31.5347 19.3475 31.9342 19.1842 32.3025 18.9687C32.6703 18.7537 33.0069 18.4934 33.3125 18.1878L35.375 19.042L36.1875 17.6253L34.3958 16.2712C34.4653 16.0767 34.5139 15.8717 34.5417 15.6562C34.5694 15.4412 34.5833 15.2225 34.5833 15.0003C34.5833 14.7781 34.5694 14.5592 34.5417 14.3437C34.5139 14.1287 34.4653 13.9239 34.3958 13.7295L36.1875 12.3753L35.375 10.9587L33.3125 11.8337C33.0069 11.5142 32.6703 11.2467 32.3025 11.0312C31.9342 10.8162 31.5347 10.6531 31.1042 10.542L30.8333 8.33366H29.1875L28.8958 10.542C28.4653 10.6531 28.0661 10.8162 27.6983 11.0312C27.33 11.2467 26.9931 11.5073 26.6875 11.8128L24.625 10.9587L23.8125 12.3753L25.6042 13.7087C25.5347 13.917 25.4861 14.1253 25.4583 14.3337C25.4306 14.542 25.4167 14.7642 25.4167 15.0003C25.4167 15.2225 25.4306 15.4378 25.4583 15.6462C25.4861 15.8545 25.5347 16.0628 25.6042 16.2712L23.8125 17.6253L24.625 19.042L26.6875 18.167C26.9931 18.4864 27.33 18.7537 27.6983 18.9687C28.0661 19.1842 28.4653 19.3475 28.8958 19.4587L29.1667 21.667Z" />
</g>
</svg>
